<svg width="60" height="60" viewBox="0 0 60 60" fill="none" xmlns="http://www.w3.org/2000/svg">
<g clip-path="url(#clip0_321_19908)">
<path d="M20 10H10C7.34784 10 4.8043 11.0536 2.92893 12.9289C1.05357 14.8043 0 17.3478 0 20L0 30C0 31.3261 0.526784 32.5979 1.46447 33.5355C2.40215 34.4732 3.67392 35 5 35H17.5C17.496 38.314 16.1778 41.4911 13.8345 43.8345C11.4911 46.1778 8.31399 47.496 5 47.5C4.00544 47.5 3.05161 47.8951 2.34835 48.5984C1.64509 49.3016 1.25 50.2554 1.25 51.25C1.25 52.2446 1.64509 53.1984 2.34835 53.9016C3.05161 54.6049 4.00544 55 5 55C10.3025 54.994 15.3861 52.885 19.1356 49.1356C22.885 45.3861 24.994 40.3025 25 35V15C25 13.6739 24.4732 12.4021 23.5355 11.4645C22.5979 10.5268 21.3261 10 20 10Z" fill="#10B981"/>
<path d="M55 10H45C42.3478 10 39.8043 11.0536 37.9289 12.9289C36.0536 14.8043 35 17.3478 35 20V30C35 31.3261 35.5268 32.5979 36.4645 33.5355C37.4021 34.4732 38.6739 35 40 35H52.5C52.496 38.314 51.1778 41.4911 48.8345 43.8345C46.4911 46.1778 43.314 47.496 40 47.5C39.0054 47.5 38.0516 47.8951 37.3483 48.5984C36.6451 49.3016 36.25 50.2554 36.25 51.25C36.25 52.2446 36.6451 53.1984 37.3483 53.9016C38.0516 54.6049 39.0054 55 40 55C45.3025 54.994 50.3861 52.885 54.1356 49.1356C57.885 45.3861 59.994 40.3025 60 35V15C60 13.6739 59.4732 12.4021 58.5355 11.4645C57.5979 10.5268 56.3261 10 55 10Z" fill="#10B981"/>
</g>
<defs>
<clipPath id="clip0_321_19908">
<rect width="60" height="60" fill="white"/>
</clipPath>
</defs>
</svg>
