<svg width="55" height="55" viewBox="0 0 55 55" fill="none" xmlns="http://www.w3.org/2000/svg">
<path d="M41.4708 21.1861C40.8391 19.8558 38.3805 15.3535 34.032 15.2985L34.0269 15.2994L34.0209 15.2985C24.108 15.2985 20.7985 19.1881 19.9159 20.6189C17.8897 20.6594 15.8775 20.9645 13.9304 21.5264L9.94203 14.6815C9.86649 14.5515 9.75815 14.4437 9.62785 14.3687C9.49755 14.2938 9.34985 14.2544 9.19953 14.2544H6.87922C6.6513 14.2544 6.43271 14.3449 6.27155 14.5061C6.11038 14.6673 6.01984 14.8858 6.01984 15.1138V23.9903L5.47586 24.1467C4.88968 24.3178 4.37452 24.6739 4.00718 25.1617C3.63983 25.6495 3.43999 26.243 3.43742 26.8537C3.44002 27.2846 3.5411 27.7093 3.73294 28.0952C3.92478 28.4811 4.2024 28.8181 4.5443 29.0803L3.37469 30.6874C3.24993 30.8587 3.19286 31.07 3.21443 31.2808C3.236 31.4916 3.3347 31.687 3.49156 31.8295L5.05047 33.2466C5.19454 33.377 5.3785 33.4549 5.57244 33.4675C5.76638 33.4802 5.95889 33.4268 6.11867 33.3162L9.4814 30.9821L11.1589 31.7435C13.1733 32.6528 15.4463 33.2363 17.7984 33.4949L14.4907 38.2713C14.4084 38.391 14.3577 38.5294 14.3433 38.6739C14.3289 38.8184 14.3512 38.9641 14.4082 39.0976C14.4653 39.2312 14.5551 39.3481 14.6694 39.4376C14.7838 39.527 14.9189 39.5861 15.0622 39.6094L22.1348 40.736C22.2629 40.7566 22.394 40.7478 22.5181 40.7103C22.6423 40.6728 22.7563 40.6075 22.8516 40.5195L23.8862 39.5673C24.5557 39.6506 25.2527 39.7022 25.9788 39.7022C29.3398 39.7022 32.9569 38.7474 32.9569 36.6506C32.9569 35.5102 31.8166 34.5975 29.8537 34.0733L30.3023 33.6599H37.8468C39.5913 33.6599 51.7859 29.6553 51.7859 27.1278C51.7859 24.8995 43.3829 21.8487 41.4708 21.1861ZM39.2235 20.6825C38.7666 20.6276 38.307 20.5992 37.8468 20.5974H35.383C34.7866 19.9409 33.2637 18.2599 32.1844 17.068C32.7928 17.0339 33.402 17.017 34.0114 17.0173C36.4933 17.0491 38.2662 19.164 39.2235 20.6825ZM30.0505 17.2708C30.842 18.1448 32.993 20.521 33.9306 21.5539L32.9527 23.1747H32.083L29.2952 19.812C28.7606 19.1683 27.8643 18.8452 26.9516 18.9689C26.0931 19.0858 25.3919 19.5748 25.0765 20.2778L24.0719 22.5156C24.0521 22.5594 24.053 22.6058 24.0409 22.6513L21.6235 21.1741C22.433 20.1196 24.6932 17.9987 30.0505 17.2708ZM29.8503 23.1756H25.6591L26.644 20.9824C26.7127 20.8286 26.925 20.7074 27.1828 20.6722C27.5016 20.631 27.8179 20.7255 27.9717 20.9103L29.8503 23.1756ZM7.73859 15.9723H8.70539L12.2563 22.0678C11.9177 22.1959 11.5731 22.3334 11.2105 22.4949L7.73773 23.4935V15.9723H7.73859ZM5.70016 31.5149L5.21719 31.0758L7.49367 27.9468H10.8401L5.70016 31.5149ZM25.4658 35.7774L18.9122 34.9069L22.6634 29.4911L32.5522 29.2531L25.4658 35.7774ZM21.9948 38.9735L16.6821 38.1278L17.813 36.495L23.8201 37.2934L21.9948 38.9735ZM31.2391 36.6403C31.1437 37.0106 29.3811 37.9826 25.9788 37.9826C25.8568 37.9826 25.7408 37.9723 25.6205 37.9697L26.3157 37.3303L28.3017 35.5016C30.347 35.8238 31.1866 36.4598 31.2391 36.6403ZM32.1689 31.9412L35.3941 28.9721C35.522 28.8551 35.6114 28.7021 35.6507 28.5333C35.69 28.3645 35.6773 28.1878 35.6143 28.0264C35.5512 27.8649 35.4408 27.7264 35.2975 27.6289C35.1542 27.5314 34.9848 27.4796 34.8115 27.4802C34.6473 27.4802 24.2644 27.732 22.1847 27.7827C22.0493 27.7861 21.9166 27.8214 21.7974 27.8857C21.6783 27.9501 21.576 28.0417 21.4989 28.1531L18.9216 31.8742C16.414 31.7057 13.982 31.1325 11.8679 30.1786L11.1254 29.8417L14.0765 27.7938C14.2267 27.6894 14.3396 27.5398 14.3989 27.3667C14.4581 27.1936 14.4606 27.0062 14.406 26.8316C14.3513 26.657 14.2424 26.5044 14.095 26.396C13.9477 26.2876 13.7696 26.2291 13.5866 26.2289H7.05711C6.78211 26.2289 6.5243 26.3604 6.36187 26.5821L5.55492 27.6916C5.43173 27.5891 5.33227 27.4611 5.26342 27.3165C5.19458 27.1718 5.15798 27.0139 5.15617 26.8537C5.15617 26.3673 5.48359 25.9324 5.95281 25.7975L11.7441 24.1312C11.7838 24.1201 11.8226 24.106 11.8602 24.0891C12.3572 23.8622 12.8658 23.6614 13.3838 23.4875C15.4738 22.7467 17.8242 22.3437 20.1961 22.3188L24.2068 24.7697C24.3416 24.852 24.4966 24.8954 24.6545 24.8952H33.4373C33.5853 24.8952 33.7308 24.857 33.8597 24.7842C33.9885 24.7115 34.0965 24.6068 34.173 24.4801L35.4775 22.3171H37.8451C38.8041 22.3171 39.728 22.4468 40.5951 22.7038C41.9916 23.1103 46.4904 24.9476 48.772 26.2676H40.3811C40.1532 26.2676 39.9346 26.3581 39.7734 26.5193C39.6123 26.6805 39.5217 26.8991 39.5217 27.127C39.5217 27.3549 39.6123 27.5735 39.7734 27.7346C39.9346 27.8958 40.1532 27.9863 40.3811 27.9863H48.6328C45.7453 29.5667 39.5604 31.942 37.8451 31.942L32.1689 31.9412Z" fill="#10B981"/>
</svg>
