<svg width="30" height="30" viewBox="0 0 30 30" fill="none" xmlns="http://www.w3.org/2000/svg">
<path fill-rule="evenodd" clip-rule="evenodd" d="M12.1875 2.8125C12.0513 2.81248 11.9168 2.84213 11.7932 2.89938C11.6697 2.95663 11.5601 3.04011 11.4721 3.14402C11.384 3.24792 11.3197 3.36975 11.2835 3.50103C11.2474 3.63231 11.2403 3.7699 11.2627 3.90422L12.4875 11.25H8.79375L4.84172 7.73672C4.67006 7.58418 4.44839 7.49995 4.21875 7.5H1.875C1.72706 7.50001 1.58122 7.53503 1.44941 7.6022C1.31759 7.66937 1.20355 7.76678 1.11659 7.88647C1.02964 8.00616 0.972242 8.14473 0.949099 8.29084C0.925956 8.43696 0.937723 8.58649 0.983437 8.72719L4.03031 18.1022C4.09149 18.2905 4.21069 18.4546 4.37085 18.5709C4.53101 18.6873 4.7239 18.75 4.92187 18.75H14.3878L14.5186 17.9667C14.541 17.8324 14.5339 17.6948 14.4977 17.5635C14.4615 17.4322 14.3972 17.3104 14.3092 17.2065C14.2212 17.1026 14.1116 17.0191 13.988 16.9619C13.8645 16.9046 13.7299 16.875 13.5937 16.875H5.60297L3.16547 9.375H3.8625L7.81453 12.8883C7.98619 13.0408 8.20786 13.1251 8.4375 13.125H25.3125C25.8098 13.125 26.2867 13.3225 26.6383 13.6742C26.99 14.0258 27.1875 14.5027 27.1875 15C27.1875 15.4973 26.99 15.9742 26.6383 16.3258C26.2867 16.6775 25.8098 16.875 25.3125 16.875H20.625C20.4509 16.875 20.2802 16.9235 20.132 17.0151C19.9839 17.1067 19.8642 17.2377 19.7864 17.3934L16.3453 24.2761C16.1896 24.5876 15.9502 24.8495 15.6539 25.0325C15.3577 25.2156 15.0163 25.3125 14.6681 25.3125H13.2937L13.7367 22.6542C13.7591 22.5319 13.757 22.4063 13.7304 22.2848C13.7038 22.1634 13.6533 22.0484 13.5818 21.9466C13.5103 21.8448 13.4193 21.7583 13.3141 21.692C13.2088 21.6258 13.0915 21.5811 12.9688 21.5606C12.8461 21.5402 12.7206 21.5443 12.5996 21.5728C12.4785 21.6014 12.3643 21.6537 12.2637 21.7268C12.1631 21.7998 12.078 21.8922 12.0134 21.9985C11.9488 22.1047 11.906 22.2228 11.8875 22.3458L11.2622 26.0958C11.2398 26.2301 11.2469 26.3678 11.2831 26.4991C11.3193 26.6304 11.3837 26.7523 11.4717 26.8562C11.5598 26.9601 11.6695 27.0435 11.7931 27.1008C11.9167 27.158 12.0513 27.1876 12.1875 27.1875H14.6681C15.3645 27.1875 16.0471 26.9935 16.6395 26.6274C17.2318 26.2613 17.7106 25.7375 18.022 25.1147L21.2048 18.75H25.3125C26.3071 18.75 27.2609 18.3549 27.9641 17.6516C28.6674 16.9484 29.0625 15.9946 29.0625 15C29.0625 14.0054 28.6674 13.0516 27.9641 12.3483C27.2609 11.6451 26.3071 11.25 25.3125 11.25H21.2044L17.8927 4.62656C17.6202 4.08148 17.2013 3.62306 16.6829 3.30265C16.1646 2.98224 15.5672 2.81252 14.9578 2.8125H12.1875ZM19.1081 11.25H14.3878L13.2942 4.6875H14.9578C15.2189 4.68751 15.4749 4.76022 15.697 4.89749C15.9191 5.03475 16.0987 5.23115 16.2155 5.46469L19.1081 11.25Z" fill="#10B981"/>
</svg>
