<svg width="55" height="55" viewBox="0 0 55 55" fill="none" xmlns="http://www.w3.org/2000/svg">
<g clip-path="url(#clip0_206_25250)">
<path d="M27.7517 21.2326C27.9129 21.3937 28.1314 21.4843 28.3593 21.4843C28.5872 21.4843 28.8057 21.3937 28.9669 21.2326L32.4044 17.7951C32.4865 17.7159 32.5519 17.621 32.597 17.5162C32.642 17.4113 32.6657 17.2986 32.6667 17.1845C32.6677 17.0704 32.646 16.9572 32.6028 16.8516C32.5595 16.746 32.4957 16.65 32.415 16.5693C32.3344 16.4886 32.2384 16.4248 32.1328 16.3816C32.0272 16.3384 31.914 16.3167 31.7999 16.3177C31.6858 16.3187 31.573 16.3424 31.4682 16.3874C31.3633 16.4324 31.2685 16.4979 31.1892 16.58L28.3593 19.4099L27.2481 18.2987C27.0861 18.1422 26.869 18.0556 26.6437 18.0575C26.4183 18.0595 26.2028 18.1499 26.0435 18.3092C25.8841 18.4685 25.7937 18.6841 25.7918 18.9094C25.7898 19.1347 25.8764 19.3518 26.033 19.5139L27.7517 21.2326Z" fill="#10B981"/>
<path d="M28.9471 29.1741C29.1233 29.2333 29.314 29.2333 29.4902 29.1741C31.9147 28.3685 34.0237 26.8195 35.5176 24.747C37.0116 22.6746 37.8145 20.1841 37.8124 17.6293V12.8907C37.8124 12.6628 37.7219 12.4442 37.5607 12.283C37.3995 12.1219 37.181 12.0313 36.953 12.0313C34.2695 11.8697 31.7364 10.7374 29.8262 8.84561C29.6651 8.6845 29.4465 8.59399 29.2187 8.59399C28.9908 8.59399 28.7722 8.6845 28.6111 8.84561C26.6956 10.7296 24.1656 11.8606 21.4843 12.0313C21.2564 12.0313 21.0378 12.1219 20.8766 12.283C20.7155 12.4442 20.6249 12.6628 20.6249 12.8907V17.6284C20.6226 20.1834 21.4255 22.6741 22.9195 24.7467C24.4134 26.8193 26.5225 28.3685 28.9471 29.1741ZM22.3437 13.6882C24.888 13.3733 27.2812 12.3086 29.2187 10.6297C31.1561 12.3087 33.5493 13.3734 36.0937 13.6882V17.6293C36.0953 19.7741 35.4362 21.8674 34.2061 23.6244C32.976 25.3815 31.2346 26.717 29.2187 27.4494C27.2027 26.7168 25.4612 25.3812 24.2311 23.624C23.001 21.8668 22.342 19.7734 22.3437 17.6284V13.6882ZM29.2187 40.3907C29.2187 40.1628 29.1281 39.9442 28.967 39.783C28.8058 39.6219 28.5872 39.5313 28.3593 39.5313H14.0301C13.0719 39.5347 12.132 39.2694 11.3169 38.7658C10.5019 38.2621 9.84425 37.5401 9.41866 36.6816L2.24976 22.3438H5.48444L10.4026 32.1811C10.5045 32.3851 10.6833 32.5402 10.8996 32.6124C11.1158 32.6846 11.3519 32.668 11.5559 32.5661C11.7599 32.4642 11.9151 32.2855 11.9873 32.0692C12.0595 31.8529 12.0428 31.6168 11.9409 31.4128L7.40601 22.3438H8.92194L13.8401 32.1811C13.942 32.3851 14.1208 32.5402 14.3371 32.6124C14.5533 32.6846 14.7894 32.668 14.9934 32.5661C15.1974 32.4642 15.3526 32.2855 15.4248 32.0692C15.497 31.8529 15.4803 31.6168 15.3784 31.4128L13.8513 28.3594H22.3437C22.5716 28.3594 22.7902 28.2689 22.9513 28.1077C23.1125 27.9466 23.203 27.728 23.203 27.5001C23.203 27.2721 23.1125 27.0536 22.9513 26.8924C22.7902 26.7312 22.5716 26.6407 22.3437 26.6407H12.9919L10.2222 21.1003C10.1508 20.9574 10.041 20.8373 9.90516 20.7534C9.7693 20.6694 9.61274 20.625 9.45304 20.6251H0.859287C0.712785 20.625 0.568697 20.6624 0.440709 20.7337C0.312721 20.805 0.205083 20.9078 0.128018 21.0324C0.0509531 21.157 0.00702014 21.2992 0.000391855 21.4456C-0.00623643 21.5919 0.02466 21.7375 0.0901468 21.8686L7.88124 37.4499C8.44874 38.5946 9.3256 39.5573 10.4124 40.229C11.4992 40.9007 12.7525 41.2544 14.0301 41.2501H28.3593C28.5872 41.2501 28.8058 41.1595 28.967 40.9984C29.1281 40.8372 29.2187 40.6186 29.2187 40.3907ZM49.6434 32.6924L48.9826 30.3807C48.6715 29.305 48.0202 28.3591 47.1262 27.6848C46.2322 27.0105 45.1437 26.6442 44.024 26.6407H36.0937C35.8657 26.6407 35.6472 26.7312 35.486 26.8924C35.3248 27.0536 35.2343 27.2721 35.2343 27.5001C35.2343 27.728 35.3248 27.9466 35.486 28.1077C35.6472 28.2689 35.8657 28.3594 36.0937 28.3594H44.0248C44.6256 28.3629 45.215 28.5233 45.7346 28.8248C46.2542 29.1263 46.686 29.5583 46.9871 30.0782H42.9687C42.7407 30.0782 42.5222 30.1687 42.361 30.3299C42.1998 30.4911 42.1093 30.7096 42.1093 30.9376V33.5157C42.1093 33.7436 42.1998 33.9622 42.361 34.1234C42.5222 34.2845 42.7407 34.3751 42.9687 34.3751H48.9843C50.1235 34.3764 51.2156 34.8296 52.0211 35.6351C52.8267 36.4406 53.2798 37.5328 53.2812 38.6719C53.2812 38.8999 53.1906 39.1184 53.0295 39.2796C52.8683 39.4408 52.6497 39.5313 52.4218 39.5313H42.1093C41.8814 39.5313 41.6628 39.6219 41.5016 39.783C41.3405 39.9442 41.2499 40.1628 41.2499 40.3907C41.2499 40.6186 41.3405 40.8372 41.5016 40.9984C41.6628 41.1595 41.8814 41.2501 42.1093 41.2501H52.4218C53.1053 41.2494 53.7607 40.9775 54.244 40.4942C54.7274 40.0108 54.9992 39.3555 54.9999 38.6719C54.9981 37.1911 54.4509 35.7629 53.4628 34.6599C52.4748 33.557 51.1151 32.8565 49.6434 32.6924ZM43.828 31.7969H47.599L47.8448 32.6563H43.828V31.7969Z" fill="#10B981"/>
<path d="M40.3906 36.0938H33.5156C33.3559 36.0937 33.1994 36.1381 33.0635 36.222C32.9276 36.306 32.8179 36.4261 32.7465 36.569L28.4496 45.1627C28.3841 45.2938 28.3532 45.4394 28.3599 45.5858C28.3665 45.7321 28.4104 45.8743 28.4875 45.9989C28.5645 46.1235 28.6722 46.2264 28.8002 46.2976C28.9282 46.3689 29.0722 46.4063 29.2187 46.4062H36.0937C36.2534 46.4063 36.41 46.3619 36.5459 46.278C36.6817 46.194 36.7915 46.0739 36.8629 45.931L41.1598 37.3373C41.2253 37.2062 41.2561 37.0606 41.2495 36.9142C41.2429 36.7679 41.199 36.6257 41.1219 36.5011C41.0448 36.3765 40.9372 36.2736 40.8092 36.2024C40.6812 36.1311 40.5371 36.0937 40.3906 36.0938ZM35.5627 44.6875H30.6092L34.0467 37.8125H39.0002L35.5627 44.6875ZM39.5312 34.375C39.7592 34.375 39.9778 34.2845 40.1389 34.1233C40.3001 33.9621 40.3906 33.7435 40.3906 33.5156V30.9375C40.3906 30.7096 40.3001 30.491 40.1389 30.3298C39.9778 30.1687 39.7592 30.0781 39.5312 30.0781H36.9531C36.7252 30.0781 36.5066 30.1687 36.3455 30.3298C36.1843 30.491 36.0937 30.7096 36.0937 30.9375V33.5156C36.0937 33.7435 36.1843 33.9621 36.3455 34.1233C36.5066 34.2845 36.7252 34.375 36.9531 34.375H39.5312ZM37.8125 31.7969H38.6719V32.6562H37.8125V31.7969ZM33.5156 30.0781H30.9375C30.7096 30.0781 30.491 30.1687 30.3298 30.3298C30.1687 30.491 30.0781 30.7096 30.0781 30.9375V33.5156C30.0781 33.7435 30.1687 33.9621 30.3298 34.1233C30.491 34.2845 30.7096 34.375 30.9375 34.375H33.5156C33.7435 34.375 33.9621 34.2845 34.1233 34.1233C34.2845 33.9621 34.375 33.7435 34.375 33.5156V30.9375C34.375 30.7096 34.2845 30.491 34.1233 30.3298C33.9621 30.1687 33.7435 30.0781 33.5156 30.0781ZM32.6562 32.6562H31.7969V31.7969H32.6562V32.6562ZM24.9219 30.0781C24.694 30.0781 24.4754 30.1687 24.3142 30.3298C24.153 30.491 24.0625 30.7096 24.0625 30.9375V33.5156C24.0625 33.7435 24.153 33.9621 24.3142 34.1233C24.4754 34.2845 24.694 34.375 24.9219 34.375H27.5C27.7279 34.375 27.9465 34.2845 28.1077 34.1233C28.2688 33.9621 28.3594 33.7435 28.3594 33.5156V30.9375C28.3594 30.7096 28.2688 30.491 28.1077 30.3298C27.9465 30.1687 27.7279 30.0781 27.5 30.0781H24.9219ZM26.6406 32.6562H25.7812V31.7969H26.6406V32.6562ZM18.9062 30.0781C18.6783 30.0781 18.4597 30.1687 18.2986 30.3298C18.1374 30.491 18.0469 30.7096 18.0469 30.9375V33.5156C18.0469 33.7435 18.1374 33.9621 18.2986 34.1233C18.4597 34.2845 18.6783 34.375 18.9062 34.375H21.4844C21.7123 34.375 21.9309 34.2845 22.092 34.1233C22.2532 33.9621 22.3437 33.7435 22.3437 33.5156V30.9375C22.3437 30.7096 22.2532 30.491 22.092 30.3298C21.9309 30.1687 21.7123 30.0781 21.4844 30.0781H18.9062ZM20.625 32.6562H19.7656V31.7969H20.625V32.6562Z" fill="#10B981"/>
</g>
<defs>
<clipPath id="clip0_206_25250">
<rect width="55" height="55" fill="white"/>
</clipPath>
</defs>
</svg>
