<svg width="30" height="30" viewBox="0 0 30 30" fill="none" xmlns="http://www.w3.org/2000/svg">
<g clip-path="url(#clip0_313_61)">
<path d="M29.8763 11.4656C29.5093 9.96578 28.2437 8.7443 26.7275 8.42688C26.6023 8.40063 26.4776 8.40523 26.3522 8.39023C25.2241 3.49937 20.9244 0 15.8346 0H14.1678C9.07899 0 4.77852 3.50008 3.64992 8.39039C2.85242 8.49148 2.09047 8.79648 1.46828 9.32531C1.00786 9.71626 0.638045 10.2027 0.384497 10.7509C0.130949 11.2992 -0.000252175 11.896 3.63877e-07 12.5C3.63877e-07 13.8029 0.628282 15.0334 1.6668 15.8162V23.3334C1.6668 24.5619 2.34203 25.625 3.33359 26.2031V27.5C3.33359 28.8786 4.45508 30 5.83383 30C7.21258 30 8.33406 28.8786 8.33406 27.5V26.6666H21.6685V27.5C21.6685 28.8786 22.79 30 24.1688 30C25.5475 30 26.669 28.8786 26.669 27.5V26.2031C27.6605 25.625 28.3358 24.5619 28.3358 23.3334V15.8171C29.668 14.8177 30.2824 13.1283 29.8763 11.4656ZM14.1666 1.66664H15.8333C20.0534 1.66664 23.6268 4.51203 24.668 8.5193C24.1427 8.67242 23.6426 8.91172 23.208 9.2643C22.2281 10.0602 21.6666 11.2394 21.6666 12.5V16.6666H8.33336V12.6782C8.33336 10.7305 7.06992 9.0332 5.33274 8.51469C6.37492 4.51047 9.94852 1.66664 14.1666 1.66664ZM23.3334 19.1666C23.3334 19.6264 22.9598 20 22.5 20H7.5C7.04024 20 6.66664 19.6265 6.66664 19.1666C6.66664 18.7069 7.04016 18.3333 7.5 18.3333H22.5C22.9598 18.3334 23.3334 18.7069 23.3334 19.1666ZM6.66664 27.5C6.66664 27.9598 6.29313 28.3334 5.83328 28.3334C5.37352 28.3334 5 27.9598 5 27.5V26.6666H6.66664V27.5ZM25 27.5C25 27.9598 24.6265 28.3334 24.1666 28.3334C23.7069 28.3334 23.3333 27.9598 23.3333 27.5V26.6666H25V27.5ZM27.0809 14.6509C26.9548 14.7241 26.8502 14.8292 26.7775 14.9556C26.7048 15.082 26.6666 15.2253 26.6666 15.3711V23.3334C26.6666 24.2521 25.9188 25 25 25H5C4.08125 25 3.33336 24.2521 3.33336 23.3334V15.3711C3.33336 15.0748 3.17547 14.8006 2.91914 14.6509C2.13461 14.1944 1.66664 13.3903 1.66664 12.5C1.66653 12.1375 1.74531 11.7794 1.8975 11.4504C2.04969 11.1214 2.27165 10.8295 2.54797 10.5949C3.11602 10.1115 3.84438 9.91297 4.59227 10.035C5.77469 10.227 6.66664 11.3639 6.66664 12.6782V16.8202C5.69875 17.1653 5 18.0816 5 19.1666C5 20.5452 6.12141 21.6666 7.5 21.6666H22.5C23.8786 21.6666 25 20.5452 25 19.1666C25 18.0816 24.3013 17.1653 23.3334 16.8202V12.5C23.3334 11.7431 23.6703 11.0359 24.2587 10.5583C24.8552 10.0741 25.6096 9.89586 26.3835 10.0578C27.2852 10.2466 28.0372 10.9717 28.2545 11.8612C28.5287 12.9818 28.0681 14.0763 27.0809 14.6509Z" fill="#10B981"/>
</g>
<defs>
<clipPath id="clip0_313_61">
<rect width="30" height="30" fill="white"/>
</clipPath>
</defs>
</svg>
