<svg width="30" height="30" viewBox="0 0 30 30" fill="none" xmlns="http://www.w3.org/2000/svg">
<path d="M9.09092 1.875C8.84228 1.875 8.60383 1.97377 8.42801 2.14959C8.25219 2.3254 8.15342 2.56386 8.15342 2.8125V3.43875H6.98624C5.83839 3.43999 4.73792 3.89652 3.92628 4.70817C3.11463 5.51981 2.6581 6.62028 2.65686 7.76813V20.7488C2.6581 21.8966 3.11463 22.9971 3.92628 23.8087C4.73792 24.6204 5.83839 25.0769 6.98624 25.0781H15.2475C15.8386 26.0106 16.6555 26.7788 17.6226 27.3114C18.5897 27.844 19.6756 28.1239 20.7797 28.125C24.3984 28.125 27.3431 25.1812 27.3431 21.5625C27.3431 19.2375 26.1244 17.1956 24.2953 16.0294V7.76813C24.2941 6.62045 23.8377 5.52012 23.0262 4.7085C22.2148 3.89688 21.1145 3.44024 19.9669 3.43875H18.7997V2.8125C18.7997 2.56386 18.7009 2.3254 18.5251 2.14959C18.3493 1.97377 18.1108 1.875 17.8622 1.875C17.6135 1.875 17.3751 1.97377 17.1993 2.14959C17.0234 2.3254 16.9247 2.56386 16.9247 2.8125V3.43875H10.0284V2.8125C10.0284 2.56386 9.92965 2.3254 9.75384 2.14959C9.57802 1.97377 9.33956 1.875 9.09092 1.875ZM9.09092 6.87844C9.33956 6.87844 9.57802 6.77967 9.75384 6.60385C9.92965 6.42803 10.0284 6.18958 10.0284 5.94094V5.31375H16.9247V5.94094C16.9247 6.18958 17.0234 6.42803 17.1993 6.60385C17.3751 6.77967 17.6135 6.87844 17.8622 6.87844C18.1108 6.87844 18.3493 6.77967 18.5251 6.60385C18.7009 6.42803 18.7997 6.18958 18.7997 5.94094V5.31375H19.9669C20.6175 5.3145 21.2412 5.57335 21.7012 6.0335C22.1612 6.49365 22.4198 7.1175 22.4203 7.76813V15.2147C21.8848 15.0736 21.3335 15.0011 20.7797 14.9991C17.1609 14.9991 14.2172 17.9428 14.2172 21.5616C14.2172 22.1297 14.2969 22.6772 14.4328 23.2022H6.98624C6.33561 23.2017 5.71176 22.9431 5.25161 22.4831C4.79146 22.0231 4.53261 21.3994 4.53186 20.7488V7.76813C4.5326 7.11741 4.79143 6.49357 5.25155 6.03344C5.71168 5.57332 6.33552 5.31449 6.98624 5.31375H8.15342V5.94094C8.15342 6.18958 8.25219 6.42803 8.42801 6.60385C8.60383 6.77967 8.84228 6.87844 9.09092 6.87844ZM16.0922 21.5625C16.0922 18.9769 18.195 16.8741 20.7797 16.8741C23.3653 16.8741 25.4681 18.9769 25.4681 21.5616C25.4681 24.1462 23.3653 26.25 20.7797 26.25C18.195 26.25 16.0922 24.1472 16.0922 21.5625Z" fill="#10B981"/>
<path d="M20.7797 22.5001H22.935C23.1836 22.5001 23.4221 22.4013 23.5979 22.2255C23.7737 22.0497 23.8725 21.8112 23.8725 21.5626C23.8725 21.3139 23.7737 21.0755 23.5979 20.8997C23.4221 20.7238 23.1836 20.6251 22.935 20.6251H21.7172V19.4082C21.7172 19.1596 21.6184 18.9211 21.4426 18.7453C21.2668 18.5695 21.0283 18.4707 20.7797 18.4707C20.531 18.4707 20.2926 18.5695 20.1167 18.7453C19.9409 18.9211 19.8422 19.1596 19.8422 19.4082V21.5626C19.8422 21.8112 19.9409 22.0497 20.1167 22.2255C20.2926 22.4013 20.531 22.5001 20.7797 22.5001Z" fill="#10B981"/>
</svg>
