<svg width="45" height="45" viewBox="0 0 45 45" fill="none" xmlns="http://www.w3.org/2000/svg">
<path d="M41.5336 19.7367H35.8102C35.2638 19.7367 34.7398 19.9538 34.3534 20.3401C33.9671 20.7265 33.75 21.2505 33.75 21.7969V30.9375H30.9375V29.6578C30.9356 29.2519 30.7736 28.8631 30.4865 28.576C30.1994 28.2889 29.8106 28.1268 29.4047 28.125H23.2031V24.6094C23.2031 24.4229 23.129 24.2441 22.9972 24.1122C22.8653 23.9803 22.6865 23.9062 22.5 23.9062C22.3135 23.9062 22.1347 23.9803 22.0028 24.1122C21.871 24.2441 21.7969 24.4229 21.7969 24.6094V28.125H15.5953C15.1894 28.1268 14.8006 28.2889 14.5135 28.576C14.2264 28.8631 14.0643 29.2519 14.0625 29.6578V30.9375H10.5469V27.4219H11.9531C12.8855 27.4219 13.7797 27.0515 14.439 26.3922C15.0984 25.7329 15.4688 24.8387 15.4688 23.9062C15.4688 22.9738 15.0984 22.0796 14.439 21.4203C13.7797 20.761 12.8855 20.3906 11.9531 20.3906H9.14062V18.9844C9.14062 18.7979 9.06655 18.6191 8.93468 18.4872C8.80282 18.3553 8.62398 18.2812 8.4375 18.2812C8.25102 18.2812 8.07218 18.3553 7.94032 18.4872C7.80845 18.6191 7.73438 18.7979 7.73438 18.9844V20.3906H4.92188C3.98947 20.3906 3.09526 20.761 2.43595 21.4203C1.77665 22.0796 1.40625 22.9738 1.40625 23.9062C1.40625 24.8387 1.77665 25.7329 2.43595 26.3922C3.09526 27.0515 3.98947 27.4219 4.92188 27.4219H6.32812V30.9375H3.33984C2.82702 30.9375 2.33521 31.1412 1.97259 31.5038C1.60997 31.8665 1.40625 32.3583 1.40625 32.8711V41.6602C1.40625 42.173 1.60997 42.6648 1.97259 43.0274C2.33521 43.39 2.82702 43.5938 3.33984 43.5938H41.6602C42.173 43.5938 42.6648 43.39 43.0274 43.0274C43.39 42.6648 43.5938 42.173 43.5938 41.6602V21.7969C43.5938 21.2505 43.3767 20.7265 42.9903 20.3401C42.604 19.9538 42.08 19.7367 41.5336 19.7367ZM15.4688 29.6578C15.4688 29.6242 15.4821 29.5921 15.5058 29.5683C15.5296 29.5446 15.5617 29.5312 15.5953 29.5312H29.4047C29.4383 29.5312 29.4704 29.5446 29.4942 29.5683C29.5179 29.5921 29.5312 29.6242 29.5312 29.6578V30.9375H15.4688V29.6578ZM2.8125 23.9062C2.8125 23.3468 3.03474 22.8103 3.43032 22.4147C3.82591 22.0191 4.36243 21.7969 4.92188 21.7969H11.9531C12.5126 21.7969 13.0491 22.0191 13.4447 22.4147C13.8403 22.8103 14.0625 23.3468 14.0625 23.9062C14.0625 24.4657 13.8403 25.0022 13.4447 25.3978C13.0491 25.7934 12.5126 26.0156 11.9531 26.0156H4.92188C4.36243 26.0156 3.82591 25.7934 3.43032 25.3978C3.03474 25.0022 2.8125 24.4657 2.8125 23.9062ZM7.73438 27.4219H9.14062V30.9375H7.73438V27.4219ZM2.8125 41.6602V32.8711C2.81155 32.8016 2.82455 32.7326 2.85071 32.6682C2.87688 32.6038 2.91569 32.5453 2.96485 32.4961C3.01401 32.4469 3.07252 32.4081 3.13692 32.382C3.20133 32.3558 3.27033 32.3428 3.33984 32.3438H33.75V42.1875H3.33984C3.27033 42.1884 3.20133 42.1755 3.13692 42.1493C3.07252 42.1231 3.01401 42.0843 2.96485 42.0352C2.91569 41.986 2.87688 41.9275 2.85071 41.8631C2.82455 41.7987 2.81155 41.7297 2.8125 41.6602ZM42.1875 41.6602C42.1884 41.7297 42.1754 41.7987 42.1493 41.8631C42.1231 41.9275 42.0843 41.986 42.0352 42.0352C41.986 42.0843 41.9275 42.1231 41.8631 42.1493C41.7987 42.1755 41.7297 42.1884 41.6602 42.1875H35.1562V21.7969C35.1562 21.6234 35.2251 21.4571 35.3478 21.3345C35.4704 21.2119 35.6367 21.143 35.8102 21.143H41.5336C41.707 21.143 41.8733 21.2119 41.996 21.3345C42.1186 21.4571 42.1875 21.6234 42.1875 21.7969V41.6602Z" fill="#10B981"/>
<path d="M4.92188 35.1562H31.6406C31.8271 35.1562 32.0059 35.0822 32.1378 34.9503C32.2697 34.8184 32.3438 34.6396 32.3438 34.4531C32.3438 34.2666 32.2697 34.0878 32.1378 33.9559C32.0059 33.8241 31.8271 33.75 31.6406 33.75H4.92188C4.73539 33.75 4.55655 33.8241 4.42469 33.9559C4.29283 34.0878 4.21875 34.2666 4.21875 34.4531C4.21875 34.6396 4.29283 34.8184 4.42469 34.9503C4.55655 35.0822 4.73539 35.1562 4.92188 35.1562ZM31.6406 36.5625H4.92188C4.73539 36.5625 4.55655 36.6366 4.42469 36.7684C4.29283 36.9003 4.21875 37.0791 4.21875 37.2656C4.21875 37.4521 4.29283 37.6309 4.42469 37.7628C4.55655 37.8947 4.73539 37.9688 4.92188 37.9688H31.6406C31.8271 37.9688 32.0059 37.8947 32.1378 37.7628C32.2697 37.6309 32.3438 37.4521 32.3438 37.2656C32.3438 37.0791 32.2697 36.9003 32.1378 36.7684C32.0059 36.6366 31.8271 36.5625 31.6406 36.5625ZM31.6406 39.375H4.92188C4.73539 39.375 4.55655 39.4491 4.42469 39.5809C4.29283 39.7128 4.21875 39.8916 4.21875 40.0781C4.21875 40.2646 4.29283 40.4434 4.42469 40.5753C4.55655 40.7072 4.73539 40.7812 4.92188 40.7812H31.6406C31.8271 40.7812 32.0059 40.7072 32.1378 40.5753C32.2697 40.4434 32.3438 40.2646 32.3438 40.0781C32.3438 39.8916 32.2697 39.7128 32.1378 39.5809C32.0059 39.4491 31.8271 39.375 31.6406 39.375ZM40.0781 22.5H37.2656C37.0791 22.5 36.9003 22.5741 36.7684 22.7059C36.6366 22.8378 36.5625 23.0166 36.5625 23.2031C36.5625 23.3896 36.6366 23.5684 36.7684 23.7003C36.9003 23.8322 37.0791 23.9062 37.2656 23.9062H40.0781C40.2646 23.9062 40.4434 23.8322 40.5753 23.7003C40.7072 23.5684 40.7812 23.3896 40.7812 23.2031C40.7812 23.0166 40.7072 22.8378 40.5753 22.7059C40.4434 22.5741 40.2646 22.5 40.0781 22.5ZM40.0781 25.3125H37.2656C37.0791 25.3125 36.9003 25.3866 36.7684 25.5184C36.6366 25.6503 36.5625 25.8291 36.5625 26.0156C36.5625 26.2021 36.6366 26.3809 36.7684 26.5128C36.9003 26.6447 37.0791 26.7188 37.2656 26.7188H40.0781C40.2646 26.7188 40.4434 26.6447 40.5753 26.5128C40.7072 26.3809 40.7812 26.2021 40.7812 26.0156C40.7812 25.8291 40.7072 25.6503 40.5753 25.5184C40.4434 25.3866 40.2646 25.3125 40.0781 25.3125ZM40.0781 28.125H37.2656C37.0791 28.125 36.9003 28.1991 36.7684 28.3309C36.6366 28.4628 36.5625 28.6416 36.5625 28.8281C36.5625 29.0146 36.6366 29.1934 36.7684 29.3253C36.9003 29.4572 37.0791 29.5312 37.2656 29.5312H40.0781C40.2646 29.5312 40.4434 29.4572 40.5753 29.3253C40.7072 29.1934 40.7812 29.0146 40.7812 28.8281C40.7812 28.6416 40.7072 28.4628 40.5753 28.3309C40.4434 28.1991 40.2646 28.125 40.0781 28.125ZM40.0781 30.9375H37.2656C37.0791 30.9375 36.9003 31.0116 36.7684 31.1434C36.6366 31.2753 36.5625 31.4541 36.5625 31.6406C36.5625 31.8271 36.6366 32.0059 36.7684 32.1378C36.9003 32.2697 37.0791 32.3438 37.2656 32.3438H40.0781C40.2646 32.3438 40.4434 32.2697 40.5753 32.1378C40.7072 32.0059 40.7812 31.8271 40.7812 31.6406C40.7812 31.4541 40.7072 31.2753 40.5753 31.1434C40.4434 31.0116 40.2646 30.9375 40.0781 30.9375ZM40.0781 33.75H37.2656C37.0791 33.75 36.9003 33.8241 36.7684 33.9559C36.6366 34.0878 36.5625 34.2666 36.5625 34.4531C36.5625 34.6396 36.6366 34.8184 36.7684 34.9503C36.9003 35.0822 37.0791 35.1562 37.2656 35.1562H40.0781C40.2646 35.1562 40.4434 35.0822 40.5753 34.9503C40.7072 34.8184 40.7812 34.6396 40.7812 34.4531C40.7812 34.2666 40.7072 34.0878 40.5753 33.9559C40.4434 33.8241 40.2646 33.75 40.0781 33.75ZM40.0781 36.5625H37.2656C37.0791 36.5625 36.9003 36.6366 36.7684 36.7684C36.6366 36.9003 36.5625 37.0791 36.5625 37.2656C36.5625 37.4521 36.6366 37.6309 36.7684 37.7628C36.9003 37.8947 37.0791 37.9688 37.2656 37.9688H40.0781C40.2646 37.9688 40.4434 37.8947 40.5753 37.7628C40.7072 37.6309 40.7812 37.4521 40.7812 37.2656C40.7812 37.0791 40.7072 36.9003 40.5753 36.7684C40.4434 36.6366 40.2646 36.5625 40.0781 36.5625ZM40.0781 39.375H37.2656C37.0791 39.375 36.9003 39.4491 36.7684 39.5809C36.6366 39.7128 36.5625 39.8916 36.5625 40.0781C36.5625 40.2646 36.6366 40.4434 36.7684 40.5753C36.9003 40.7072 37.0791 40.7812 37.2656 40.7812H40.0781C40.2646 40.7812 40.4434 40.7072 40.5753 40.5753C40.7072 40.4434 40.7812 40.2646 40.7812 40.0781C40.7812 39.8916 40.7072 39.7128 40.5753 39.5809C40.4434 39.4491 40.2646 39.375 40.0781 39.375ZM9.97031 15.8695C10.0349 15.9627 10.1211 16.0388 10.2215 16.0915C10.3219 16.1441 10.4335 16.1717 10.5469 16.1719H35.8594C36.6053 16.1719 37.3207 15.8756 37.8481 15.3481C38.3756 14.8207 38.6719 14.1053 38.6719 13.3594C38.6719 12.6135 38.3756 11.8981 37.8481 11.3706C37.3207 10.8432 36.6053 10.5469 35.8594 10.5469H26.4094C25.3125 8.775 21.1711 2.00391 20.9672 1.70859C20.9026 1.61545 20.8164 1.53932 20.716 1.48667C20.6156 1.43403 20.504 1.40644 20.3906 1.40625H15.4688C15.2823 1.40625 15.1034 1.48033 14.9716 1.61219C14.8397 1.74405 14.7656 1.92289 14.7656 2.10938C14.7656 2.20781 18.4641 8.95078 19.2727 10.5469H12.2836L10.1742 7.9875C10.1089 7.90904 10.0272 7.84575 9.93493 7.80203C9.84265 7.75832 9.74195 7.73523 9.63984 7.73438H5.625C5.49673 7.73459 5.37096 7.76988 5.26131 7.83644C5.15166 7.903 5.0623 7.99829 5.00292 8.11199C4.94353 8.22568 4.91638 8.35346 4.92441 8.48148C4.93243 8.6095 4.97532 8.73289 5.04844 8.83828L9.97031 15.8695ZM9.26719 9.14062L11.3766 11.7C11.4464 11.7841 11.5348 11.8508 11.6349 11.8947C11.735 11.9387 11.844 11.9587 11.9531 11.9531H20.3906C20.5067 11.953 20.6209 11.9242 20.7231 11.8692C20.8253 11.8143 20.9123 11.7349 20.9764 11.6381C21.0404 11.5413 21.0795 11.4302 21.0902 11.3146C21.1009 11.199 21.0828 11.0826 21.0375 10.9758C20.5523 9.84375 16.8258 3.15 16.643 2.8125H20.0039C20.7703 4.03594 23.5195 8.52891 25.418 11.6156C25.4805 11.7183 25.5682 11.8032 25.6728 11.8623C25.7774 11.9213 25.8955 11.9526 26.0156 11.9531H35.8594C36.2323 11.9531 36.59 12.1013 36.8537 12.365C37.1175 12.6287 37.2656 12.9864 37.2656 13.3594C37.2656 13.7323 37.1175 14.09 36.8537 14.3537C36.59 14.6175 36.2323 14.7656 35.8594 14.7656H10.9125L6.975 9.14062H9.26719Z" fill="#10B981"/>
</svg>
