<svg width="30" height="30" viewBox="0 0 30 30" fill="none" xmlns="http://www.w3.org/2000/svg">
<path d="M20.7937 12.2251L19.4822 10.9126L13.7681 16.6267L10.5178 13.3754L9.20625 14.6879L13.7681 19.2488L20.7937 12.2251Z" fill="#10B981"/>
<path d="M3.56344 6.17438V12.3928C3.56344 19.1756 7.81688 25.3687 14.1469 27.8034L14.9812 28.125L15.3019 28.0144C18.5515 26.8946 21.3708 24.7889 23.3667 21.9906C25.3626 19.1924 26.4358 15.8412 26.4366 12.4041V6.17438L25.5459 6.13969C22.2338 6.00937 18.8709 4.71 15.5475 2.27625L15 1.875L14.4525 2.27625C11.1281 4.71 7.76625 6.00937 4.455 6.13969L3.56344 6.17438ZM5.41875 7.93313C8.625 7.62937 11.8406 6.36562 15 4.16437C18.1584 6.36469 21.375 7.62937 24.5812 7.93313V12.4041C24.5812 18.5447 20.7506 24.0263 15.0131 26.1488L14.8134 26.0719C9.19313 23.9109 5.41875 18.4144 5.41875 12.3938V7.93313Z" fill="#10B981"/>
</svg>
