<svg width="40" height="40" viewBox="0 0 40 40" fill="none" xmlns="http://www.w3.org/2000/svg">
<g clip-path="url(#clip0_206_25165)">
<path d="M33.1039 4.22368C33.1039 3.08108 32.1775 2.15469 31.0349 2.15469H28.9659C28.9659 1.01208 28.0395 0.0856934 26.8969 0.0856934C25.7543 0.0856934 24.8279 1.01208 24.8279 2.15469H22.0693C22.0693 1.01208 21.1429 0.0856934 20.0003 0.0856934C18.8577 0.0856934 17.9313 1.01208 17.9313 2.15469H15.1726C15.1726 1.01208 14.2462 0.0856934 13.1036 0.0856934C11.961 0.0856934 11.0346 1.01208 11.0346 2.15469H8.27597C8.27597 1.01208 7.34958 0.0856934 6.20698 0.0856934C5.06438 0.0856934 4.13799 1.01208 4.13799 2.15469H2.06899C0.926391 2.15469 0 3.08108 0 4.22368V33.1896C0 33.3725 0.0726608 33.5479 0.201998 33.6772C0.331335 33.8066 0.506754 33.8792 0.689664 33.8792H2.75866V35.9482C2.75866 36.1311 2.83132 36.3066 2.96065 36.4359C3.08999 36.5652 3.26541 36.6379 3.44832 36.6379H21.6092C21.6184 36.6379 21.6251 36.6332 21.6335 36.6332C25.2862 39.1524 30.0489 39.3918 33.936 37.2511C37.8231 35.1107 40.1669 30.9576 39.9908 26.524C39.8147 22.0899 37.1486 18.1362 33.1039 16.3106V4.22368ZM26.2072 2.15469C26.2072 1.97178 26.2799 1.79636 26.4092 1.66702C26.5386 1.53768 26.714 1.46502 26.8969 1.46502C27.0798 1.46502 27.2552 1.53768 27.3846 1.66702C27.5139 1.79636 27.5866 1.97178 27.5866 2.15469V4.22368H26.2072V2.15469ZM19.3106 2.15469C19.3106 1.97178 19.3833 1.79636 19.5126 1.66702C19.6419 1.53768 19.8174 1.46502 20.0003 1.46502C20.1832 1.46502 20.3586 1.53768 20.4879 1.66702C20.6173 1.79636 20.6899 1.97178 20.6899 2.15469V4.22368H19.3106V2.15469ZM12.414 2.15469C12.414 1.97178 12.4866 1.79636 12.616 1.66702C12.7453 1.53768 12.9207 1.46502 13.1036 1.46502C13.2865 1.46502 13.4619 1.53768 13.5913 1.66702C13.7206 1.79636 13.7933 1.97178 13.7933 2.15469V4.22368H12.414V2.15469ZM5.51731 2.15469C5.51731 1.97178 5.58997 1.79636 5.71931 1.66702C5.84865 1.53768 6.02407 1.46502 6.20698 1.46502C6.38989 1.46502 6.56531 1.53768 6.69464 1.66702C6.82398 1.79636 6.89664 1.97178 6.89664 2.15469V4.22368H5.51731V2.15469ZM1.37933 4.22368C1.37933 4.04077 1.45199 3.86535 1.58133 3.73601C1.71066 3.60667 1.88608 3.53401 2.06899 3.53401H4.13799V4.91334C4.13799 5.00391 4.15582 5.09359 4.19048 5.17727C4.22514 5.26094 4.27594 5.33697 4.33998 5.40101C4.40402 5.46505 4.48005 5.51585 4.56373 5.55051C4.6474 5.58517 4.73708 5.60301 4.82765 5.60301H7.58631C7.76922 5.60301 7.94463 5.53035 8.07397 5.40101C8.20331 5.27167 8.27597 5.09625 8.27597 4.91334V3.53401H11.0346V4.91334C11.0346 5.09625 11.1073 5.27167 11.2366 5.40101C11.366 5.53035 11.5414 5.60301 11.7243 5.60301H14.4829C14.6659 5.60301 14.8413 5.53035 14.9706 5.40101C15.1 5.27167 15.1726 5.09625 15.1726 4.91334V3.53401H17.9313V4.91334C17.9313 5.09625 18.0039 5.27167 18.1333 5.40101C18.2626 5.53035 18.438 5.60301 18.6209 5.60301H21.3796C21.5625 5.60301 21.7379 5.53035 21.8673 5.40101C21.9966 5.27167 22.0693 5.09625 22.0693 4.91334V3.53401H24.8279V4.91334C24.8279 5.09625 24.9006 5.27167 25.0299 5.40101C25.1592 5.53035 25.3347 5.60301 25.5176 5.60301H28.2762C28.4591 5.60301 28.6346 5.53035 28.7639 5.40101C28.8932 5.27167 28.9659 5.09625 28.9659 4.91334V3.53401H31.0349C31.2178 3.53401 31.3932 3.60667 31.5226 3.73601C31.6519 3.86535 31.7246 4.04077 31.7246 4.22368V7.672H1.37933V4.22368ZM4.13799 33.8792H18.8163C19.1683 34.3682 19.5575 34.8294 19.9804 35.2586H4.13799V33.8792ZM38.6212 26.9826C38.6212 32.6959 33.9895 37.3276 28.2762 37.3276C22.563 37.3276 17.9313 32.6959 17.9313 26.9826C17.9313 21.2693 22.563 16.6376 28.2762 16.6376C33.9868 16.644 38.6148 21.272 38.6212 26.9826ZM28.2762 15.2583C24.1568 15.2556 20.3387 17.4162 18.2202 20.9491C16.1017 24.4815 15.9939 28.8677 17.9366 32.4999H1.37933V9.05133H31.7246V15.7776C30.6075 15.4331 29.4452 15.258 28.2762 15.2583Z" fill="#10B981"/>
<path d="M6.20693 11.8101C5.06433 11.8101 4.13794 12.7364 4.13794 13.8791C4.13794 15.0217 5.06433 15.948 6.20693 15.948C7.34953 15.948 8.27592 15.0217 8.27592 13.8791C8.27592 12.7364 7.34953 11.8101 6.20693 11.8101ZM6.20693 14.5687C6.02402 14.5687 5.8486 14.4961 5.71927 14.3667C5.58993 14.2374 5.51727 14.062 5.51727 13.8791C5.51727 13.6961 5.58993 13.5207 5.71927 13.3914C5.8486 13.262 6.02402 13.1894 6.20693 13.1894C6.38984 13.1894 6.56526 13.262 6.6946 13.3914C6.82393 13.5207 6.8966 13.6961 6.8966 13.8791C6.8966 14.062 6.82393 14.2374 6.6946 14.3667C6.56526 14.4961 6.38984 14.5687 6.20693 14.5687ZM13.1036 11.8101C11.961 11.8101 11.0346 12.7364 11.0346 13.8791C11.0346 15.0217 11.961 15.948 13.1036 15.948C14.2462 15.948 15.1726 15.0217 15.1726 13.8791C15.1726 12.7364 14.2462 11.8101 13.1036 11.8101ZM13.1036 14.5687C12.9207 14.5687 12.7452 14.4961 12.6159 14.3667C12.4866 14.2374 12.4139 14.062 12.4139 13.8791C12.4139 13.6961 12.4866 13.5207 12.6159 13.3914C12.7452 13.262 12.9207 13.1894 13.1036 13.1894C13.2865 13.1894 13.4619 13.262 13.5912 13.3914C13.7206 13.5207 13.7932 13.6961 13.7932 13.8791C13.7932 14.062 13.7206 14.2374 13.5912 14.3667C13.4619 14.4961 13.2865 14.5687 13.1036 14.5687ZM20.0002 11.8101C18.8576 11.8101 17.9312 12.7364 17.9312 13.8791C17.9312 15.0217 18.8576 15.948 20.0002 15.948C21.1428 15.948 22.0692 15.0217 22.0692 13.8791C22.0692 12.7364 21.1428 11.8101 20.0002 11.8101ZM20.0002 14.5687C19.8173 14.5687 19.6419 14.4961 19.5125 14.3667C19.3832 14.2374 19.3105 14.062 19.3105 13.8791C19.3105 13.6961 19.3832 13.5207 19.5125 13.3914C19.6419 13.262 19.8173 13.1894 20.0002 13.1894C20.1831 13.1894 20.3585 13.262 20.4879 13.3914C20.6172 13.5207 20.6899 13.6961 20.6899 13.8791C20.6899 14.062 20.6172 14.2374 20.4879 14.3667C20.3585 14.4961 20.1831 14.5687 20.0002 14.5687ZM6.20693 17.3274C5.06433 17.3274 4.13794 18.2538 4.13794 19.3964C4.13794 20.539 5.06433 21.4654 6.20693 21.4654C7.34953 21.4654 8.27592 20.539 8.27592 19.3964C8.27592 18.2538 7.34953 17.3274 6.20693 17.3274ZM6.20693 20.086C6.02402 20.086 5.8486 20.0134 5.71927 19.884C5.58993 19.7547 5.51727 19.5793 5.51727 19.3964C5.51727 19.2135 5.58993 19.038 5.71927 18.9087C5.8486 18.7794 6.02402 18.7067 6.20693 18.7067C6.38984 18.7067 6.56526 18.7794 6.6946 18.9087C6.82393 19.038 6.8966 19.2135 6.8966 19.3964C6.8966 19.5793 6.82393 19.7547 6.6946 19.884C6.56526 20.0134 6.38984 20.086 6.20693 20.086ZM13.1036 17.3274C11.961 17.3274 11.0346 18.2538 11.0346 19.3964C11.0346 20.539 11.961 21.4654 13.1036 21.4654C14.2462 21.4654 15.1726 20.539 15.1726 19.3964C15.1726 18.2538 14.2462 17.3274 13.1036 17.3274ZM13.1036 20.086C12.9207 20.086 12.7452 20.0134 12.6159 19.884C12.4866 19.7547 12.4139 19.5793 12.4139 19.3964C12.4139 19.2135 12.4866 19.038 12.6159 18.9087C12.7452 18.7794 12.9207 18.7067 13.1036 18.7067C13.2865 18.7067 13.4619 18.7794 13.5912 18.9087C13.7206 19.038 13.7932 19.2135 13.7932 19.3964C13.7932 19.5793 13.7206 19.7547 13.5912 19.884C13.4619 20.0134 13.2865 20.086 13.1036 20.086ZM6.20693 22.8447C5.06433 22.8447 4.13794 23.7711 4.13794 24.9137C4.13794 26.0563 5.06433 26.9827 6.20693 26.9827C7.34953 26.9827 8.27592 26.0563 8.27592 24.9137C8.27592 23.7711 7.34953 22.8447 6.20693 22.8447ZM6.20693 25.6033C6.02402 25.6033 5.8486 25.5307 5.71927 25.4013C5.58993 25.272 5.51727 25.0966 5.51727 24.9137C5.51727 24.7308 5.58993 24.5553 5.71927 24.426C5.8486 24.2967 6.02402 24.224 6.20693 24.224C6.38984 24.224 6.56526 24.2967 6.6946 24.426C6.82393 24.5553 6.8966 24.7308 6.8966 24.9137C6.8966 25.0966 6.82393 25.272 6.6946 25.4013C6.56526 25.5307 6.38984 25.6033 6.20693 25.6033ZM13.1036 22.8447C11.961 22.8447 11.0346 23.7711 11.0346 24.9137C11.0346 26.0563 11.961 26.9827 13.1036 26.9827C14.2462 26.9827 15.1726 26.0563 15.1726 24.9137C15.1726 23.7711 14.2462 22.8447 13.1036 22.8447ZM13.1036 25.6033C12.9207 25.6033 12.7452 25.5307 12.6159 25.4013C12.4866 25.272 12.4139 25.0966 12.4139 24.9137C12.4139 24.7308 12.4866 24.5553 12.6159 24.426C12.7452 24.2967 12.9207 24.224 13.1036 24.224C13.2865 24.224 13.4619 24.2967 13.5912 24.426C13.7206 24.5553 13.7932 24.7308 13.7932 24.9137C13.7932 25.0966 13.7206 25.272 13.5912 25.4013C13.4619 25.5307 13.2865 25.6033 13.1036 25.6033ZM19.3105 26.9827C19.3105 31.9343 23.3247 35.9483 28.2762 35.9483C33.2277 35.9483 37.2418 31.9343 37.2418 26.9827C37.2418 22.0311 33.2277 18.017 28.2762 18.017C23.327 18.0228 19.3162 22.0335 19.3105 26.9827ZM35.8625 26.9827H34.4832C34.3002 26.9827 34.1248 27.0553 33.9955 27.1847C33.8662 27.314 33.7935 27.4894 33.7935 27.6723C33.7935 27.8552 33.8662 28.0307 33.9955 28.16C34.1248 28.2893 34.3002 28.362 34.4832 28.362H35.7308C35.1089 31.7003 32.3468 34.2202 28.9658 34.534V33.1896C28.9658 33.0067 28.8932 32.8313 28.7638 32.702C28.6345 32.5726 28.4591 32.5 28.2762 32.5C28.0933 32.5 27.9179 32.5726 27.7885 32.702C27.6592 32.8313 27.5865 33.0067 27.5865 33.1896V34.534C24.2055 34.2202 21.4435 31.7002 20.8215 28.362H22.0692C22.2521 28.362 22.4275 28.2893 22.5569 28.16C22.6862 28.0307 22.7589 27.8552 22.7589 27.6723C22.7589 27.4894 22.6862 27.314 22.5569 27.1847C22.4275 27.0553 22.2521 26.9827 22.0692 26.9827H20.6899C20.695 23.0629 23.6833 19.791 27.5865 19.4317V20.7757C27.5865 20.9586 27.6592 21.134 27.7885 21.2634C27.9179 21.3927 28.0933 21.4654 28.2762 21.4654C28.4591 21.4654 28.6345 21.3927 28.7638 21.2634C28.8932 21.134 28.9658 20.9586 28.9658 20.7757V19.4317C32.8691 19.791 35.8574 23.0629 35.8625 26.9827Z" fill="#10B981"/>
<path d="M28.4244 26.6515L27.4707 25.2207C27.3691 25.0685 27.2113 24.9629 27.0319 24.927C26.8526 24.8911 26.6663 24.9279 26.514 25.0293C26.4386 25.0796 26.3739 25.1442 26.3235 25.2195C26.2732 25.2948 26.2381 25.3793 26.2204 25.4681C26.2026 25.557 26.2026 25.6484 26.2202 25.7373C26.2378 25.8262 26.2728 25.9107 26.3231 25.986L27.7024 28.055C27.7562 28.1353 27.8262 28.2034 27.9079 28.255C27.9896 28.3066 28.0813 28.3404 28.1769 28.3544C28.2726 28.3685 28.3703 28.3623 28.4635 28.3361C28.5566 28.31 28.6433 28.2644 28.7177 28.2025L32.8556 24.7542C32.9253 24.6963 32.9828 24.6252 33.025 24.545C33.0672 24.4648 33.0931 24.3771 33.1014 24.2868C33.1096 24.1966 33.1 24.1057 33.0731 24.0191C33.0462 23.9326 33.0025 23.8523 32.9445 23.7826C32.8275 23.642 32.6593 23.5535 32.4771 23.5368C32.2948 23.5201 32.1134 23.5765 31.9727 23.6935L28.4244 26.6515Z" fill="#10B981"/>
</g>
<defs>
<clipPath id="clip0_206_25165">
<rect width="40" height="40" fill="white"/>
</clipPath>
</defs>
</svg>
