<svg width="45" height="45" viewBox="0 0 45 45" fill="none" xmlns="http://www.w3.org/2000/svg">
<g clip-path="url(#clip0_206_25264)">
<path d="M9.01338 27.5653C8.81654 26.5364 8.26731 25.6082 7.46014 24.9404C6.65298 24.2725 5.63833 23.9069 4.59072 23.9062H1.50752C1.30704 23.9063 1.10888 23.9492 0.926327 24.032C0.74377 24.1149 0.581027 24.2358 0.449001 24.3867C0.316975 24.5375 0.218716 24.7149 0.160806 24.9068C0.102896 25.0987 0.0866727 25.3008 0.113223 25.4995L1.68611 37.2206C1.82689 37.949 2.19463 38.614 2.73662 39.1205C3.27861 39.627 3.96703 39.949 4.70322 40.0402L3.7983 43.207C3.73762 43.4162 3.72675 43.6367 3.76655 43.8509C3.80635 44.065 3.89573 44.2669 4.02752 44.4403C4.29611 44.7961 4.70533 45 5.15111 45H6.56791C7.13182 45 7.63877 44.6646 7.86025 44.1471L9.604 40.0781H35.396L37.1391 44.1464C37.2473 44.3997 37.4275 44.6157 37.6574 44.7675C37.8873 44.9192 38.1567 45.0001 38.4321 45H39.8489C40.2947 45 40.7039 44.7961 40.9725 44.4403C41.2404 44.0845 41.3241 43.6352 41.2017 43.2077L40.2968 40.0395C41.0387 39.9454 41.7314 39.6179 42.2749 39.1042C42.8184 38.5905 43.1845 37.9173 43.3203 37.182L44.8875 25.5002C44.914 25.3014 44.8976 25.0993 44.8396 24.9073C44.7816 24.7154 44.6833 24.538 44.5513 24.3871C44.4192 24.2362 44.2564 24.1152 44.0738 24.0323C43.8912 23.9494 43.6931 23.9064 43.4925 23.9062H40.4086C40.0887 23.9062 39.7793 23.9498 39.4763 24.0138L39.7259 20.7682C39.7771 20.0921 39.6884 19.4128 39.4655 18.7724C39.2425 18.1321 38.89 17.5446 38.43 17.0466C37.9689 16.5496 37.4104 16.1529 36.7891 15.8815C36.1679 15.61 35.4974 15.4695 34.8195 15.4688H30.671L30.2442 14.8591C29.9196 14.3959 29.488 14.0178 28.9862 13.7567C28.4844 13.4957 27.9271 13.3594 27.3614 13.3594L24.6087 13.3664L24.6094 13.3594V12.7884C25.4798 12.2833 26.1418 11.4846 26.4769 10.5356C26.9222 10.5086 27.3405 10.313 27.6466 9.98854C27.9528 9.66408 28.1239 9.23517 28.125 8.78906C28.125 7.93969 27.5203 7.23023 26.7188 7.06711V6.03C27.3448 5.75647 27.8777 5.30654 28.2523 4.73517C28.6269 4.1638 28.827 3.49571 28.8281 2.8125V0.703125C28.8281 0.516645 28.7541 0.337802 28.6222 0.205941C28.4903 0.074079 28.3115 0 28.125 0L21.863 0C20.7269 0.0011169 19.6377 0.452913 18.8344 1.25624C18.0311 2.05956 17.5793 3.14878 17.5781 4.28484V7.39195C17.1535 7.71328 16.875 8.21742 16.875 8.78977C16.8762 9.23587 17.0472 9.66479 17.3534 9.98925C17.6596 10.3137 18.0779 10.5093 18.5231 10.5363C18.8582 11.4853 19.5202 12.284 20.3906 12.7891V13.3594L20.3913 13.3664L17.6365 13.3594C16.4904 13.3594 15.4139 13.9198 14.7558 14.8591L14.329 15.4688H10.1806C9.50244 15.4696 8.83177 15.6102 8.21034 15.8817C7.58892 16.1531 7.03006 16.5497 6.56861 17.0466C6.10886 17.5448 5.7566 18.1323 5.53378 18.7726C5.31096 19.4129 5.22234 20.0922 5.27346 20.7682L5.41057 22.5541C5.41698 22.6467 5.44166 22.7371 5.48318 22.8201C5.52471 22.9031 5.58224 22.9771 5.65249 23.0377C5.72273 23.0984 5.80428 23.1445 5.89244 23.1735C5.9806 23.2025 6.07363 23.2137 6.16615 23.2066C6.25868 23.1994 6.34887 23.174 6.43154 23.1318C6.5142 23.0897 6.5877 23.0316 6.6478 22.9608C6.70789 22.8901 6.7534 22.8082 6.78168 22.7198C6.80996 22.6314 6.82047 22.5383 6.8126 22.4459L6.67549 20.6599C6.63611 20.177 6.69808 19.6912 6.85743 19.2336C7.01677 18.776 7.26998 18.3568 7.6008 18.0028C7.92842 17.6454 8.32717 17.3604 8.77145 17.1662C9.21572 16.9719 9.6957 16.8728 10.1806 16.875H13.3446L11.9377 18.8845C11.4857 19.5282 11.2631 20.305 11.3055 21.0903C11.348 21.8756 11.6531 22.6239 12.1718 23.2151L15.4688 26.9831V27.1702C15.0138 27.2409 14.5822 27.4189 14.2098 27.6897C13.8373 27.9604 13.5347 28.3159 13.3271 28.7269C13.0897 29.209 12.993 29.7483 13.0479 30.2829C12.6158 30.3844 12.2403 30.6502 12.0007 31.0238C11.7612 31.3975 11.6766 31.8497 11.7647 32.2847L11.9433 33.1777C11.9841 33.3809 12.0565 33.5693 12.143 33.7493H10.1911L9.01338 27.5653ZM6.56791 43.5938H5.15111L6.15518 40.0781H8.074L6.56791 43.5938ZM9.14065 38.6719H5.13986C4.12877 38.6719 3.2576 37.9512 3.07408 36.9949L1.50752 25.3125H4.59143C5.31184 25.3129 6.00958 25.5644 6.5646 26.0237C7.11962 26.483 7.49722 27.1214 7.63244 27.829L9.69752 38.6719H9.14065ZM38.4321 43.5938L36.9253 40.0781H38.8442L39.8482 43.5938H38.4321ZM40.4093 25.3125H43.4932L41.9323 36.957C41.8401 37.4391 41.5828 37.8741 41.2046 38.187C40.8265 38.5 40.3511 38.6715 39.8602 38.6719H35.3025L37.3683 27.829C37.5035 27.1214 37.8811 26.483 38.4361 26.0237C38.9912 25.5644 39.6889 25.3129 40.4093 25.3125ZM34.8195 16.875C35.8102 16.875 36.7263 17.2751 37.3992 18.0028C37.7303 18.3568 37.9836 18.7762 38.1429 19.2339C38.3023 19.6916 38.3642 20.1776 38.3246 20.6606L38.0215 24.6066C36.9914 25.2548 36.2271 26.3018 35.9867 27.5653L34.8082 33.75H33.1158C33.2024 33.5693 33.2754 33.3809 33.3162 33.1784L33.4948 32.2854C33.545 32.0366 33.5391 31.7798 33.4775 31.5337C33.416 31.2875 33.3003 31.0581 33.139 30.8623C32.9014 30.5725 32.575 30.3689 32.2102 30.2829C32.2645 29.7487 32.1683 29.21 31.9324 28.7276C31.7053 28.276 31.3644 27.8915 30.9433 27.6118C30.5223 27.3322 30.0356 27.1671 29.5313 27.1329V26.9831L32.8275 23.2158C33.3463 22.6246 33.6513 21.8763 33.6938 21.091C33.7363 20.3057 33.5136 19.5289 33.0617 18.8852L31.6554 16.875H34.8195ZM28.125 25.3125V26.7188H16.875V25.3125H28.125ZM16.875 23.9062V17.5781C16.875 17.3916 16.9491 17.2128 17.081 17.0809C17.2128 16.9491 17.3917 16.875 17.5781 16.875H27.4219C27.6084 16.875 27.7872 16.9491 27.9191 17.0809C28.0509 17.2128 28.125 17.3916 28.125 17.5781V23.9062H16.875ZM25.3343 28.125L22.6294 28.8766L19.9245 28.125H25.3343ZM28.9364 28.5841C29.2707 28.4916 29.6268 28.518 29.9438 28.6588C30.2608 28.7997 30.5191 29.0461 30.6746 29.3562C30.8124 29.6325 30.8531 29.9377 30.811 30.2344H27.5182L25.257 29.6065L28.9364 28.5841ZM29.5313 24.847V22.088L31.917 19.7023C32.1846 20.0882 32.3155 20.5526 32.2887 21.0214C32.262 21.4903 32.0791 21.9368 31.7693 22.2898L29.5313 24.847ZM18.9844 4.28484C18.9855 3.52174 19.2891 2.7902 19.8287 2.2506C20.3683 1.711 21.0999 1.40737 21.863 1.40625H27.4219V2.8125C27.4219 3.97547 26.4755 4.92188 25.3125 4.92188C24.1496 4.92188 23.2031 3.97547 23.2031 2.8125C23.2031 2.62602 23.1291 2.44718 22.9972 2.31532C22.8653 2.18345 22.6865 2.10938 22.5 2.10938C22.3135 2.10938 22.1347 2.18345 22.0028 2.31532C21.871 2.44718 21.7969 2.62602 21.7969 2.8125C21.7969 3.06352 21.8257 3.3068 21.8756 3.54305C21.4627 3.60749 21.0862 3.81716 20.814 4.13436C20.5418 4.45155 20.3917 4.85545 20.3906 5.27344C20.3906 5.4668 20.2324 5.625 20.0391 5.625C19.6418 5.625 19.279 5.76211 18.9844 5.985V4.28484ZM19.6875 9.14062V7.38281C19.6875 7.18945 19.8457 7.03125 20.0391 7.03125C21.0087 7.03125 21.7969 6.24305 21.7969 5.27344C21.7969 5.08008 21.9551 4.92188 22.1485 4.92188H22.5183C23.1603 5.77055 24.1685 6.32812 25.3125 6.32812V9.14062C25.3125 10.6917 24.0511 11.9531 22.5 11.9531C20.9489 11.9531 19.6875 10.6917 19.6875 9.14062ZM23.2031 13.2961V13.3594C23.2031 13.5459 23.1291 13.7247 22.9972 13.8566C22.8653 13.9884 22.6865 14.0625 22.5 14.0625C22.3135 14.0625 22.1347 13.9884 22.0028 13.8566C21.871 13.7247 21.7969 13.5459 21.7969 13.3594V13.2961C22.0261 13.3348 22.2603 13.3594 22.5 13.3594C22.7398 13.3594 22.9739 13.3348 23.2031 13.2961ZM15.9082 15.6649C16.1028 15.3876 16.3612 15.1612 16.6616 15.0047C16.962 14.8482 17.2957 14.7662 17.6344 14.7656L20.9461 14.7741C21.3328 15.198 21.8834 15.4688 22.5 15.4688C23.1167 15.4688 23.6672 15.198 24.0532 14.7741L27.3635 14.7656C28.0512 14.7656 28.6974 15.1024 29.0918 15.6649L31.0985 18.5316L29.5313 20.0995V17.5781C29.5313 16.4152 28.5849 15.4688 27.4219 15.4688H17.5781C16.4152 15.4688 15.4688 16.4152 15.4688 17.5781V20.0995L13.9015 18.5323L15.9082 15.6649ZM13.2307 22.2898C12.9209 21.9368 12.7381 21.4903 12.7113 21.0214C12.6846 20.5526 12.8154 20.0882 13.0831 19.7023L15.4688 22.088V24.847L13.2307 22.2898ZM14.5849 29.3562C14.7395 29.0454 14.9975 28.7983 15.3147 28.6574C15.6318 28.5165 15.9882 28.4906 16.3224 28.5841L27.2342 31.6153C27.2946 31.6315 27.3579 31.6406 27.4219 31.6406H31.8129C31.9402 31.6406 32.0168 31.7116 32.052 31.7538C32.0864 31.796 32.1406 31.8853 32.116 32.0091L31.9374 32.902C31.8887 33.1408 31.7592 33.3556 31.5706 33.51C31.3821 33.6645 31.1461 33.7492 30.9024 33.75H27.4887L15.6417 31.4937C15.4145 31.4512 15.2002 31.3563 15.0161 31.2164C14.8321 31.0765 14.6832 30.8955 14.5814 30.6879C14.4781 30.481 14.4247 30.2528 14.4253 30.0216C14.4259 29.7904 14.4806 29.5625 14.5849 29.3562ZM13.2075 31.7538C13.2363 31.7182 13.2727 31.6895 13.3141 31.6699C13.3555 31.6503 13.4008 31.6403 13.4466 31.6406H13.5338C13.9627 32.2784 14.6081 32.7284 15.3788 32.8753L18.8712 33.5405L17.7701 33.75H14.3564C14.1127 33.7495 13.8767 33.6648 13.6882 33.5103C13.4997 33.3558 13.3704 33.1409 13.3221 32.902L13.1435 32.0084C13.1345 31.9638 13.1355 31.9179 13.1466 31.8738C13.1577 31.8298 13.1785 31.7888 13.2075 31.7538ZM14.3564 35.1562H34.5403L33.871 38.6719H11.1291L10.4597 35.1562H14.3564Z" fill="#10B981"/>
<path d="M22.5 18.2812C22.3135 18.2812 22.1347 18.3553 22.0028 18.4872C21.871 18.6191 21.7969 18.7979 21.7969 18.9844C21.7969 19.1709 21.871 19.3497 22.0028 19.4816C22.1347 19.6134 22.3135 19.6875 22.5 19.6875C22.6391 19.6875 22.775 19.7287 22.8906 19.806C23.0063 19.8833 23.0964 19.9931 23.1496 20.1216C23.2028 20.25 23.2167 20.3914 23.1896 20.5278C23.1625 20.6642 23.0955 20.7895 22.9972 20.8878C22.8989 20.9861 22.7736 21.0531 22.6372 21.0802C22.5008 21.1074 22.3594 21.0934 22.2309 21.0402C22.1024 20.987 21.9926 20.8969 21.9154 20.7813C21.8381 20.6656 21.7969 20.5297 21.7969 20.3906C21.7969 20.2041 21.7228 20.0253 21.5909 19.8934C21.4591 19.7616 21.2802 19.6875 21.0938 19.6875C20.9073 19.6875 20.7284 19.7616 20.5966 19.8934C20.4647 20.0253 20.3906 20.2041 20.3906 20.3906C20.3906 21.5536 21.337 22.5 22.5 22.5C23.663 22.5 24.6094 21.5536 24.6094 20.3906C24.6094 19.2277 23.663 18.2812 22.5 18.2812Z" fill="#10B981"/>
</g>
<defs>
<clipPath id="clip0_206_25264">
<rect width="45" height="45" fill="white"/>
</clipPath>
</defs>
</svg>
