<svg width="40" height="40" viewBox="0 0 40 40" fill="none" xmlns="http://www.w3.org/2000/svg">
<g clip-path="url(#clip0_197_24960)">
<path d="M29.9999 14.0087L33.5412 10.468C36.0969 7.91924 38.0732 4.84954 39.3356 1.46805C39.3778 1.35563 39.3868 1.23341 39.3615 1.11602C39.3361 0.998628 39.2774 0.891031 39.1925 0.806105C39.1076 0.72118 39 0.662522 38.8826 0.637151C38.7652 0.61178 38.643 0.620771 38.5305 0.663047C35.1491 1.92539 32.0794 3.90173 29.5306 6.45742L25.9912 9.99992H22.5537L21.1299 9.7543L22.3174 8.5668C22.4344 8.44951 22.5001 8.29058 22.4999 8.12492V7.12492C23.7036 5.87653 24.5591 4.33447 24.9812 2.65242C25.0075 2.54764 25.0063 2.43781 24.9776 2.33366C24.9488 2.2295 24.8936 2.13458 24.8172 2.05814C24.7408 1.98171 24.6459 1.92638 24.5418 1.89755C24.4377 1.86873 24.3279 1.86739 24.2231 1.89367C22.5408 2.31561 20.9985 3.17112 19.7499 4.37492H18.7499C18.5842 4.37496 18.4252 4.44083 18.3081 4.55805L14.2906 8.57555L12.6031 8.28367L13.1818 7.70492C13.5476 7.33909 13.7532 6.84291 13.7532 6.32555C13.7532 5.80818 13.5476 5.31201 13.1818 4.94617C12.816 4.58034 12.3198 4.37482 11.8024 4.37482C11.2851 4.37482 10.7889 4.58034 10.423 4.94617L7.89367 7.47242L4.48118 6.8843C4.38257 6.8669 4.28122 6.87361 4.18578 6.90386C4.09033 6.93412 4.00362 6.98702 3.93305 7.05805L0.80805 10.183C0.690881 10.3003 0.625059 10.4592 0.625059 10.6249C0.625059 10.7906 0.690881 10.9496 0.80805 11.0668L12.0781 22.3368C10.2199 23.8208 8.83764 25.8171 8.10242 28.0787L2.56243 27.503C2.46987 27.4934 2.37633 27.5046 2.28863 27.5357C2.20094 27.5669 2.12131 27.6172 2.05555 27.683L0.80555 28.933C0.688381 29.0503 0.622559 29.2092 0.622559 29.3749C0.622559 29.5407 0.688381 29.6996 0.80555 29.8168L10.1805 39.1918C10.2978 39.309 10.4567 39.3748 10.6224 39.3748C10.7882 39.3748 10.9471 39.309 11.0643 39.1918L12.3143 37.9418C12.3808 37.8768 12.432 37.7978 12.4641 37.7106C12.4962 37.6233 12.5084 37.53 12.4999 37.4374L11.9249 31.8993C14.1861 31.1637 16.1821 29.7815 17.6662 27.9237L28.9331 39.1918C29.0503 39.309 29.2092 39.3748 29.3749 39.3748C29.5407 39.3748 29.6996 39.309 29.8168 39.1918L32.9418 36.0668C33.0125 35.996 33.0652 35.9093 33.0955 35.8139C33.1257 35.7185 33.1326 35.6173 33.1156 35.5187L32.5274 32.1062L35.0537 29.5799C35.2348 29.3988 35.3785 29.1837 35.4765 28.9471C35.5746 28.7104 35.625 28.4567 35.625 28.2005C35.625 27.9444 35.5746 27.6907 35.4765 27.454C35.3785 27.2174 35.2348 27.0023 35.0537 26.8212C34.8725 26.64 34.6575 26.4963 34.4208 26.3983C34.1841 26.3003 33.9305 26.2498 33.6743 26.2498C33.4181 26.2498 33.1645 26.3003 32.9278 26.3983C32.6911 26.4963 32.4761 26.64 32.2949 26.8212L31.7162 27.3999L31.4243 25.7093L35.4418 21.6918C35.559 21.5746 35.6249 21.4157 35.6249 21.2499V20.2499C36.8286 19.0015 37.6841 17.4595 38.1062 15.7774C38.1324 15.6727 38.1311 15.5629 38.1023 15.4589C38.0735 15.3548 38.0182 15.26 37.9418 15.1836C37.8655 15.1073 37.7707 15.052 37.6666 15.0232C37.5625 14.9944 37.4528 14.9931 37.3481 15.0193C35.6658 15.4411 34.1236 16.2963 32.8749 17.4999H31.8749C31.7092 17.5 31.5502 17.5658 31.4331 17.683L30.2456 18.8705L29.9999 17.4468V14.0087ZM33.4518 8.74992H32.7587C32.3585 8.74992 31.9748 8.59096 31.6918 8.30802C31.4089 8.02507 31.2499 7.64132 31.2499 7.24117V6.54805C33.1327 4.83196 35.2787 3.42932 37.6062 2.39367C36.5705 4.72113 35.1679 6.86719 33.4518 8.74992ZM24.7412 11.2499L19.5837 16.4068L18.6518 17.143L18.2006 16.6918C18.0834 16.5746 18.0176 16.4156 18.0176 16.2499C18.0176 16.0842 18.0834 15.9253 18.2006 15.808L22.7587 11.2499H24.7412ZM21.8549 5.97117L20.9037 5.01992C21.6425 4.36412 22.488 3.83947 23.4037 3.46867C23.0339 4.38504 22.5101 5.23141 21.8549 5.97117ZM19.0087 5.62492H19.7412L21.2499 7.13367V7.86617L19.6249 9.4943L15.8012 8.83555L19.0087 5.62492ZM11.3037 5.82992C11.3688 5.76484 11.446 5.71321 11.5311 5.67798C11.6161 5.64276 11.7073 5.62463 11.7993 5.62463C11.8913 5.62463 11.9825 5.64276 12.0675 5.67798C12.1526 5.71321 12.2298 5.76484 12.2949 5.82992C12.36 5.89501 12.4116 5.97228 12.4469 6.05732C12.4821 6.14236 12.5002 6.2335 12.5002 6.32555C12.5002 6.41759 12.4821 6.50874 12.4469 6.59378C12.4116 6.67882 12.36 6.75609 12.2949 6.82117L11.0924 8.02367L9.40117 7.73242L11.3037 5.82992ZM4.58805 8.17117L21.2049 11.0362L17.3168 14.9243C16.9653 15.2759 16.7678 15.7527 16.7678 16.2499C16.7678 16.7471 16.9653 17.2239 17.3168 17.5755L17.6643 17.923L15.1593 19.9005L4.00868 8.74992L4.58805 8.17117ZM3.12493 9.63367L14.1712 20.6805L13.0637 21.5555L2.13368 10.6249L3.12493 9.63367ZM11.2224 37.2681L10.6249 37.8662L2.13368 29.3749L2.73118 28.7774L7.77367 29.3012C7.5925 30.1471 7.50075 31.0098 7.49992 31.8749C7.49992 32.0407 7.56577 32.1997 7.68298 32.3169C7.80019 32.4341 7.95916 32.4999 8.12492 32.4999C8.99027 32.4991 9.85313 32.4073 10.6993 32.2262L11.2224 37.2681ZM16.7449 27.0724C15.7871 28.2927 14.5803 29.2948 13.2048 30.012C11.8294 30.7292 10.3169 31.145 8.76805 31.2318C8.85482 29.683 9.27066 28.1705 9.98787 26.795C10.7051 25.4195 11.7072 24.2127 12.9274 23.2549L20.3874 17.3655C20.4066 17.3505 20.4247 17.3342 20.4418 17.3168L30.0462 7.71242C30.1399 8.27285 30.4062 8.79004 30.808 9.19182C31.2098 9.59361 31.727 9.85994 32.2874 9.95367L22.6831 19.558C22.6657 19.5751 22.6494 19.5933 22.6343 19.6124L16.7449 27.0724ZM28.7499 15.2587V17.2412L24.1918 21.7993C24.0746 21.9165 23.9157 21.9823 23.7499 21.9823C23.5842 21.9823 23.4253 21.9165 23.3081 21.7993L22.8568 21.348L23.5931 20.4162L28.7499 15.2587ZM29.3749 37.8662L18.4449 26.9374L19.3199 25.8299L30.3662 36.8749L29.3749 37.8662ZM31.2499 35.9912L20.0993 24.8405L22.0768 22.3355L22.4243 22.683C22.7759 23.0346 23.2527 23.232 23.7499 23.232C24.2471 23.232 24.7239 23.0346 25.0756 22.683L28.9637 18.7949L31.8287 35.4118L31.2499 35.9912ZM33.1787 27.7049C33.3101 27.5735 33.4884 27.4996 33.6743 27.4996C33.8602 27.4996 34.0385 27.5735 34.1699 27.7049C34.3014 27.8364 34.3752 28.0147 34.3752 28.2005C34.3752 28.3864 34.3014 28.5647 34.1699 28.6962L32.2674 30.5987L31.9762 28.9074L33.1787 27.7049ZM34.9799 19.0962L34.0287 18.1449C34.7675 17.4891 35.613 16.9645 36.5287 16.5937C36.1589 17.51 35.6351 18.3564 34.9799 19.0962ZM32.1337 18.7499H32.8662L34.3749 20.2587V20.9912L31.1643 24.2018L30.5056 20.3749L32.1337 18.7499Z" fill="#10B981"/>
<path d="M10.1831 28.9331L17.0581 22.0581L17.9419 22.9419L11.0669 29.8169L10.1831 28.9331Z" fill="#10B981"/>
</g>
<defs>
<clipPath id="clip0_197_24960">
<rect width="40" height="40" fill="white"/>
</clipPath>
</defs>
</svg>
