<svg width="40" height="40" viewBox="0 0 40 40" fill="none" xmlns="http://www.w3.org/2000/svg">
<path fill-rule="evenodd" clip-rule="evenodd" d="M7.68844 34.3459H4.22413C4.05772 34.3459 3.89813 34.2798 3.78046 34.1622C3.66279 34.0445 3.59668 33.8849 3.59668 33.7185V3.5631C3.59668 3.39669 3.66279 3.2371 3.78046 3.11943C3.89813 3.00176 4.05772 2.93565 4.22413 2.93565H22.6443L23.3848 2.19518C23.4745 2.10549 23.5892 2.04509 23.7139 2.02195C23.8386 1.9988 23.9674 2.014 24.0833 2.06553L24.994 2.47048C25.4443 2.22208 25.9209 2.0246 26.415 1.88169L26.7743 0.950397C26.8199 0.83219 26.9003 0.730561 27.0047 0.658883C27.1092 0.587206 27.233 0.548838 27.3597 0.548828H29.3657C29.6254 0.548828 29.8582 0.708828 29.9514 0.951259L30.309 1.88185C30.8028 2.02475 31.2792 2.22218 31.7294 2.47048L32.6401 2.06553C32.756 2.014 32.8848 1.9988 33.0095 2.02195C33.1342 2.04509 33.2489 2.10549 33.3386 2.19518L34.7568 3.61338C34.8464 3.70296 34.9067 3.81757 34.9299 3.94212C34.9531 4.06668 34.9381 4.19534 34.8868 4.31118L34.4833 5.22208C34.732 5.67308 34.9296 6.15044 35.0724 6.6453L36.0011 7.00271C36.1194 7.04825 36.2212 7.12859 36.2929 7.23312C36.3647 7.33765 36.4031 7.46148 36.4031 7.58828V9.59432C36.4031 9.72112 36.3647 9.84494 36.2929 9.94947C36.2212 10.054 36.1194 10.1343 36.0011 10.1799L35.0721 10.5374C34.9286 11.0311 34.731 11.5074 34.483 11.9578L34.8868 12.8694C34.9381 12.9852 34.9531 13.1139 34.9299 13.2384C34.9067 13.363 34.8464 13.4776 34.7568 13.5672L33.3386 14.9854C33.2491 15.075 33.1344 15.1353 33.0099 15.1585C32.8853 15.1817 32.7567 15.1667 32.6408 15.1153L31.7302 14.712C31.2798 14.9606 30.803 15.1581 30.3088 15.3008L29.9513 16.2296C29.9057 16.348 29.8254 16.4497 29.7209 16.5215C29.6163 16.5933 29.4925 16.6317 29.3657 16.6317H28.1189V33.7185C28.1189 33.8849 28.0528 34.0445 27.9351 34.1622C27.8174 34.2798 27.6578 34.3459 27.4914 34.3459H15.3689V38.8233C15.3689 38.9897 15.3028 39.1493 15.1851 39.267C15.0675 39.3847 14.9079 39.4508 14.7415 39.4508H14.5811C14.4478 39.4508 14.318 39.4084 14.2105 39.3297L11.5287 37.3669L8.84688 39.3297C8.73933 39.4084 8.60954 39.4508 8.47629 39.4508H8.3159C8.14949 39.4508 7.98989 39.3847 7.87222 39.267C7.75455 39.1493 7.68844 38.9897 7.68844 38.8233V34.3459ZM21.7972 4.19055H4.85158V33.091H7.68844V31.6546C6.64719 30.6489 5.99935 29.2385 5.99935 27.678C5.99935 24.6263 8.47699 22.1487 11.5287 22.1487C13.3724 22.1487 15.0066 23.0531 16.0115 24.4421H22.7458C23.0921 24.4421 23.3732 24.7232 23.3732 25.0695C23.3732 25.4158 23.0921 25.697 22.7458 25.697H16.692C16.9347 26.3292 17.0588 27.0008 17.058 27.678C17.058 27.9576 17.0372 28.2325 16.9971 28.501H22.7458C23.0921 28.501 23.3732 28.7822 23.3732 29.1284C23.3732 29.4748 23.0921 29.7559 22.7458 29.7559H16.6536C16.3624 30.4714 15.9248 31.1182 15.3689 31.6546V33.091H26.864V16.3889C26.8264 16.3405 26.7961 16.2868 26.7741 16.2296L26.4167 15.3009C25.9222 15.1576 25.4451 14.9599 24.9942 14.7116L24.0826 15.1153C23.9667 15.1667 23.8381 15.1817 23.7135 15.1585C23.589 15.1353 23.4743 15.075 23.3848 14.9854L21.9666 13.5672C21.9526 13.5532 21.9392 13.5384 21.9266 13.5231H8.97276C8.62648 13.5231 8.34531 13.242 8.34531 12.8957C8.34531 12.5494 8.62648 12.2682 8.97276 12.2682H22.1039L22.2417 11.9583C21.9934 11.508 21.7956 11.0315 21.6521 10.5377L20.7223 10.1799C20.604 10.1343 20.5022 10.054 20.4304 9.94949C20.3586 9.84495 20.3202 9.72113 20.3202 9.59432V7.58828C20.3202 7.46147 20.3586 7.33764 20.4304 7.23311C20.5022 7.12858 20.604 7.04825 20.7223 7.00271L21.6518 6.64499C21.7954 6.15054 21.9933 5.67351 22.2419 5.22263L21.837 4.31197C21.8196 4.27297 21.8063 4.23228 21.7972 4.19055ZM8.94335 32.566V37.704L11.1581 36.083C11.2656 36.0043 11.3954 35.9619 11.5287 35.9619C11.6619 35.9619 11.7917 36.0043 11.8993 36.083L14.114 37.704V32.566C13.3423 32.9754 12.4624 33.2073 11.5287 33.2073C10.595 33.2073 9.71503 32.9754 8.94335 32.566ZM29.2528 2.63157L28.9346 1.80373H27.7901L27.4703 2.63244C27.4337 2.72747 27.3744 2.81215 27.2977 2.87915C27.221 2.94615 27.1291 2.99346 27.03 3.01699C26.4406 3.15705 25.8773 3.39048 25.3616 3.70844C25.2748 3.76193 25.1762 3.79345 25.0744 3.80027C24.9727 3.80709 24.8708 3.789 24.7775 3.74757L23.9673 3.38734L23.1587 4.19597L23.519 5.00616C23.5604 5.09937 23.5785 5.20127 23.5717 5.30304C23.5649 5.40482 23.5333 5.5034 23.4798 5.59024C23.1615 6.10723 22.9273 6.67152 22.7861 7.262C22.7624 7.36091 22.7149 7.45256 22.6479 7.52906C22.5809 7.60556 22.4962 7.66461 22.4013 7.70114L21.5751 8.0191V9.1635L22.4013 9.48146C22.4962 9.51796 22.5807 9.57695 22.6477 9.65337C22.7147 9.72978 22.7622 9.82132 22.786 9.92012C22.928 10.5099 23.1608 11.0743 23.4793 11.5895C23.533 11.6764 23.5647 11.7751 23.5716 11.877C23.5786 11.979 23.5605 12.081 23.519 12.1744L23.1587 12.9846L23.9678 13.7937L24.7783 13.4346C24.8712 13.3935 24.9727 13.3755 25.0741 13.3823C25.1754 13.389 25.2737 13.4203 25.3603 13.4734C25.8774 13.7902 26.4399 14.0253 27.0317 14.1655C27.1309 14.189 27.2229 14.2364 27.2998 14.3035C27.3766 14.3706 27.4359 14.4554 27.4725 14.5506L27.7906 15.3768H28.9349L29.2528 14.5506C29.2895 14.4555 29.3487 14.3707 29.4255 14.3036C29.5023 14.2365 29.5942 14.1891 29.6934 14.1655C30.2826 14.026 30.8456 13.7927 31.3609 13.4747C31.4477 13.4211 31.5462 13.3894 31.648 13.3824C31.7498 13.3754 31.8518 13.3933 31.9451 13.4346L32.7556 13.7937L33.5652 12.9841L33.2061 12.1736C33.1649 12.0807 33.147 11.9793 33.1537 11.8779C33.1604 11.7765 33.1917 11.6783 33.2448 11.5917C33.5616 11.0746 33.7968 10.512 33.937 9.92193C33.9606 9.82275 34.008 9.73081 34.0751 9.65406C34.1422 9.57731 34.2269 9.51807 34.3221 9.48146L35.1482 9.1635V8.0191L34.3221 7.70114C34.2269 7.66451 34.142 7.6052 34.0749 7.52837C34.0078 7.45153 33.9604 7.35948 33.9369 7.2602C33.7972 6.67017 33.5638 6.10636 33.2456 5.59024C33.1922 5.50353 33.1607 5.4051 33.1538 5.30348C33.1469 5.20185 33.1648 5.10008 33.2061 5.00695L33.5652 4.19644L32.7561 3.38734L31.9459 3.74757C31.8526 3.789 31.7507 3.80709 31.649 3.80027C31.5472 3.79345 31.4486 3.76193 31.3618 3.70844C30.8461 3.39048 30.2828 3.15705 29.6934 3.01699C29.5941 2.99341 29.5021 2.94599 29.4254 2.87883C29.3486 2.81167 29.2893 2.7268 29.2528 2.63157ZM28.3617 4.46389C30.6416 4.46389 32.4901 6.3104 32.4901 8.59032C32.4901 10.8701 30.6415 12.7187 28.3617 12.7187C26.0818 12.7187 24.2353 10.8702 24.2353 8.59032C24.2353 6.31032 26.0817 4.46389 28.3617 4.46389ZM28.3617 5.71879C26.7751 5.71879 25.4902 7.00365 25.4902 8.59032C25.4902 10.177 26.775 11.4638 28.3617 11.4638C29.9485 11.4638 31.2352 10.1771 31.2352 8.59032C31.2352 7.00357 29.9484 5.71879 28.3617 5.71879ZM8.97276 17.579C8.62648 17.579 8.34531 17.2979 8.34531 16.9516C8.34531 16.6053 8.62648 16.3241 8.97276 16.3241H22.7458C23.0921 16.3241 23.3732 16.6053 23.3732 16.9516C23.3732 17.2979 23.0921 17.579 22.7458 17.579H8.97276ZM8.97276 9.4642C8.62648 9.4642 8.34531 9.18302 8.34531 8.83675C8.34531 8.4904 8.62648 8.2093 8.97276 8.2093H18.8577C19.204 8.2093 19.4852 8.4904 19.4852 8.83675C19.4852 9.18302 19.204 9.4642 18.8577 9.4642H8.97276ZM8.97276 21.638C8.62648 21.638 8.34531 21.3568 8.34531 21.0106C8.34531 20.6643 8.62648 20.3831 8.97276 20.3831H22.7458C23.0921 20.3831 23.3732 20.6643 23.3732 21.0106C23.3732 21.3568 23.0921 21.638 22.7458 21.638H8.97276ZM11.5287 23.4036C9.16954 23.4036 7.25425 25.3189 7.25425 27.678C7.25425 30.0371 9.16954 31.9524 11.5287 31.9524C13.8878 31.9524 15.8031 30.0371 15.8031 27.678C15.8031 25.3189 13.8878 23.4036 11.5287 23.4036Z" fill="#10B981"/>
</svg>
