<svg width="40" height="40" viewBox="0 0 40 40" fill="none" xmlns="http://www.w3.org/2000/svg">
<g clip-path="url(#clip0_222_4731)">
<path d="M35.2647 27.6108C36.4319 26.7255 37.1875 25.3245 37.1875 23.75C37.1875 21.0791 35.0146 18.9062 32.3438 18.9062C29.6729 18.9062 27.5 21.0791 27.5 23.75C27.5 25.3241 28.2552 26.7246 29.4217 27.6099C28.448 28.0118 27.5679 28.6108 26.8368 29.3693C26.0116 27.7377 24.6195 26.4399 22.9209 25.7363C24.0881 24.851 24.8438 23.45 24.8438 21.8755C24.8438 19.2046 22.6709 17.0317 20 17.0317C17.3291 17.0317 15.1562 19.2046 15.1562 21.8755C15.1562 23.45 15.9119 24.851 17.0791 25.7363C15.3805 26.4399 13.9884 27.7377 13.1632 29.3693C12.4322 28.6108 11.5521 28.0118 10.5783 27.6099C11.7448 26.7246 12.5 25.3241 12.5 23.75C12.5 21.0791 10.3271 18.9062 7.65625 18.9062C4.98539 18.9062 2.8125 21.0791 2.8125 23.75C2.8125 25.3245 3.56813 26.7255 4.73531 27.6108C1.95852 28.7612 0 31.4998 0 34.6875V39.2188C0 39.6502 0.349766 40 0.78125 40H39.2188C39.6502 40 40 39.6502 40 39.2188V34.6875C40 31.4998 38.0415 28.7612 35.2647 27.6108ZM4.375 23.75C4.375 21.9407 5.84695 20.4688 7.65625 20.4688C9.46555 20.4688 10.9375 21.9407 10.9375 23.75C10.9375 25.5593 9.46555 27.0312 7.65625 27.0312C5.84695 27.0312 4.375 25.5593 4.375 23.75ZM12.3438 32.813V38.4375H1.5625V34.6875C1.5625 31.3273 4.29617 28.5938 7.65625 28.5938C9.5943 28.5938 11.3982 29.508 12.5477 31.0554C12.4119 31.6314 12.3435 32.2212 12.3438 32.813ZM16.7188 21.8755C16.7188 20.0662 18.1907 18.5942 20 18.5942C21.8093 18.5942 23.2812 20.0662 23.2812 21.8755C23.2812 23.6848 21.8093 25.1567 20 25.1567C18.1907 25.1567 16.7188 23.6848 16.7188 21.8755ZM26.0938 38.4375H24.5443V35.9745C24.5443 35.543 24.1945 35.1932 23.763 35.1932C23.3316 35.1932 22.9818 35.543 22.9818 35.9745V38.4375H13.9062V32.813C13.9062 29.4528 16.6399 26.7192 20 26.7192C23.3601 26.7192 26.0938 29.4528 26.0938 32.813V38.4375ZM29.0625 23.75C29.0625 21.9407 30.5345 20.4688 32.3438 20.4688C34.153 20.4688 35.625 21.9407 35.625 23.75C35.625 25.5593 34.153 27.0312 32.3438 27.0312C30.5345 27.0312 29.0625 25.5593 29.0625 23.75ZM38.4375 38.4375H27.6562V32.813C27.6562 32.2084 27.5855 31.62 27.4523 31.0554C28.6018 29.508 30.4057 28.5938 32.3438 28.5938C35.7038 28.5938 38.4375 31.3273 38.4375 34.6875V38.4375ZM27.74 2.40633C27.4349 2.10117 26.9402 2.10125 26.6351 2.40633L23.9543 5.08711C23.6492 5.39219 23.6492 5.88688 23.9543 6.19203C24.0268 6.26468 24.1129 6.32229 24.2077 6.36156C24.3025 6.40083 24.4042 6.42098 24.5068 6.42086C24.6094 6.421 24.711 6.40086 24.8059 6.36159C24.9007 6.32232 24.9868 6.2647 25.0592 6.19203L27.74 3.51125C28.0451 3.20617 28.0451 2.71148 27.74 2.40633ZM16.0456 5.08711L13.3648 2.40633C13.0598 2.10125 12.5651 2.10125 12.2599 2.40633C11.9548 2.71141 11.9548 3.20609 12.2599 3.51125L14.9408 6.19203C15.0132 6.26469 15.0994 6.32231 15.1942 6.36158C15.289 6.40085 15.3906 6.42099 15.4932 6.42086C15.5958 6.421 15.6975 6.40086 15.7923 6.36159C15.8871 6.32232 15.9732 6.2647 16.0456 6.19203C16.3507 5.88695 16.3507 5.39227 16.0456 5.08711ZM20 0C19.5685 0 19.2188 0.349766 19.2188 0.78125V2.45992C19.2188 2.89141 19.5685 3.24117 20 3.24117C20.4315 3.24117 20.7812 2.89141 20.7812 2.45992V0.78125C20.7812 0.349766 20.4315 0 20 0ZM26.0706 8.82461C25.9339 8.40375 25.5769 8.10289 25.1391 8.0393L22.3031 7.62719L21.0348 5.05734C20.839 4.66055 20.4425 4.41406 20 4.41406C19.5575 4.41406 19.161 4.66055 18.9652 5.05734L17.6969 7.62719L14.861 8.0393C14.4231 8.10289 14.0662 8.40383 13.9294 8.82461C13.7927 9.24539 13.9045 9.69867 14.2213 10.0076L16.2735 12.0079L15.7891 14.8323C15.7142 15.2684 15.8901 15.7009 16.248 15.9611C16.4446 16.1048 16.6817 16.1824 16.9252 16.1827C17.1087 16.1827 17.293 16.1385 17.4634 16.049L20 14.7154L22.5366 16.0489C22.9282 16.2548 23.3939 16.2212 23.752 15.9611C24.1099 15.7009 24.2858 15.2684 24.2109 14.8324L23.7265 12.0079L25.7787 10.0076C26.0955 9.69867 26.2073 9.24539 26.0706 8.82461ZM22.482 11.039C22.3481 11.1696 22.2479 11.3308 22.19 11.5087C22.1322 11.6867 22.1185 11.876 22.1502 12.0604L22.531 14.2808L20.537 13.2325C20.3714 13.1454 20.1871 13.0999 20 13.0999C19.8155 13.0999 19.6311 13.1441 19.463 13.2325L17.469 14.2808L17.8498 12.0603C17.8815 11.8759 17.8678 11.6866 17.8099 11.5087C17.7521 11.3308 17.6519 11.1696 17.5179 11.039L15.9047 9.46656L18.134 9.14258C18.3192 9.11573 18.4951 9.04423 18.6464 8.93424C18.7978 8.82425 18.9202 8.67908 19.003 8.51125L20 6.49109L21.0838 8.68695C21.1398 8.80048 21.2226 8.89869 21.325 8.97313C21.4274 9.04758 21.5464 9.09602 21.6716 9.1143L24.0952 9.46648L22.482 11.039Z" fill="#10B981"/>
<path d="M24.3155 32.3797C24.1685 32.2341 23.9701 32.1522 23.7632 32.1516C23.5569 32.1516 23.3562 32.2344 23.2108 32.3797C23.0645 32.5267 22.9822 32.7255 22.9819 32.9329C22.9819 33.1383 23.0647 33.3399 23.2108 33.4851C23.3576 33.6313 23.5561 33.7136 23.7632 33.7141C23.9687 33.7141 24.1694 33.6305 24.3155 33.4851C24.4608 33.3391 24.5444 33.1383 24.5444 32.9329C24.5444 32.7274 24.4608 32.5258 24.3155 32.3797Z" fill="#10B981"/>
</g>
<defs>
<clipPath id="clip0_222_4731">
<rect width="40" height="40" fill="white"/>
</clipPath>
</defs>
</svg>
